Nobile-black.ufo
<glyph name="quotedbl" format="1">
  <advance width="1374"/>
  <unicode hex="0022"/>
  <outline>
    <contour>
      <point x="307" y="706" type="line"/>
      <point x="501" y="706" type="line"/>
      <point x="521" y="847"/>
      <point x="598" y="1360"/>
      <point x="624" y="1554" type="curve" smooth="yes"/>
      <point x="627" y="1578"/>
      <point x="631" y="1586"/>
      <point x="630" y="1578" type="curve" smooth="yes"/>
      <point x="213" y="1578" type="line"/>
      <point x="213" y="1586"/>
      <point x="221" y="1537"/>
      <point x="220" y="1546" type="curve"/>
    </contour>
    <contour>
      <point x="831" y="706" type="line"/>
      <point x="1039" y="706" type="line"/>
      <point x="1059" y="850"/>
      <point x="1140" y="1388"/>
      <point x="1163" y="1565" type="curve" smooth="yes"/>
      <point x="1166" y="1582"/>
      <point x="1168" y="1586"/>
      <point x="1168" y="1578" type="curve" smooth="yes"/>
      <point x="751" y="1578" type="line"/>
      <point x="751" y="1586"/>
      <point x="756" y="1555"/>
      <point x="755" y="1563" type="curve"/>
    </contour>
  </outline>
</glyph>
<glyph name="numbersign" format="1">
  <advance width="1351"/>
  <unicode hex="0023"/>
  <outline>
    <contour>
      <point x="225" y="-114" type="line"/>
      <point x="487" y="-114" type="line"/>
      <point x="563" y="378" type="line"/>
      <point x="770" y="378" type="line"/>
      <point x="695" y="-114" type="line"/>
      <point x="956" y="-114" type="line"/>
      <point x="1030" y="378" type="line"/>
      <point x="1270" y="378" type="line"/>
      <point x="1270" y="542" type="line"/>
      <point x="1052" y="542" type="line"/>
      <point x="1087" y="800" type="line"/>
      <point x="1261" y="800" type="line"/>
      <point x="1261" y="963" type="line"/>
      <point x="1109" y="963" type="line"/>
      <point x="1176" y="1451" type="line"/>
      <point x="913" y="1451" type="line"/>
      <point x="849" y="963" type="line"/>
      <point x="638" y="963" type="line"/>
      <point x="707" y="1451" type="line"/>
      <point x="447" y="1451" type="line"/>
      <point x="378" y="963" type="line"/>
      <point x="133" y="963" type="line"/>
      <point x="133" y="800" type="line"/>
      <point x="355" y="800" type="line"/>
      <point x="321" y="542" type="line"/>
      <point x="143" y="542" type="line"/>
      <point x="143" y="378" type="line"/>
      <point x="301" y="378" type="line"/>
    </contour>
    <contour>
      <point x="585" y="542" type="line"/>
      <point x="618" y="800" type="line"/>
      <point x="821" y="800" type="line"/>
      <point x="788" y="542" type="line"/>
    </contour>
  </outline>
</glyph>
<glyph name="dollar" format="1">
  <advance width="1514"/>
  <unicode hex="0024"/>
  <outline>
    <contour>
      <point x="687" y="-135" type="line"/>
      <point x="799" y="-135" type="line"/>
      <point x="799" y="-40" type="line"/>
      <point x="1165" y="-15"/>
      <point x="1359" y="183"/>
      <point x="1359" y="541" type="curve" smooth="yes"/>
      <point x="1359" y="761"/>
      <point x="1195" y="926"/>
      <point x="977" y="1006" type="curve" smooth="yes"/>
      <point x="990" y="1001"/>
      <point x="787" y="1077"/>
      <point x="799" y="1072" type="curve"/>
      <point x="799" y="1400" type="line"/>
      <point x="942" y="1390"/>
      <point x="1076" y="1332"/>
      <point x="1187" y="1297" type="curve"/>
      <point x="1284" y="1602" type="line"/>
      <point x="1153" y="1670"/>
      <point x="1024" y="1710"/>
      <point x="799" y="1731" type="curve"/>
      <point x="799" y="1837" type="line"/>
      <point x="687" y="1837" type="line"/>
      <point x="687" y="1738" type="line"/>
      <point x="352" y="1740"/>
      <point x="88" y="1629"/>
      <point x="88" y="1261" type="curve" smooth="yes"/>
      <point x="88" y="1093"/>
      <point x="171" y="954"/>
      <point x="364" y="870" type="curve" smooth="yes"/>
      <point x="343" y="877"/>
      <point x="710" y="720"/>
      <point x="687" y="725" type="curve"/>
      <point x="687" y="283" type="line"/>
      <point x="516" y="278"/>
      <point x="164" y="437"/>
      <point x="204" y="423" type="curve" smooth="yes"/>
      <point x="132" y="112" type="line"/>
      <point x="214" y="70"/>
      <point x="429" y="-37"/>
      <point x="687" y="-42" type="curve"/>
    </contour>
    <contour>
      <point x="687" y="1115" type="line"/>
      <point x="580" y="1164"/>
      <point x="485" y="1215"/>
      <point x="485" y="1267" type="curve" smooth="yes"/>
      <point x="485" y="1376"/>
      <point x="563" y="1401"/>
      <point x="687" y="1405" type="curve"/>
    </contour>
    <contour>
      <point x="799" y="296" type="curve"/>
      <point x="799" y="675" type="line"/>
      <point x="913" y="626"/>
      <point x="954" y="570"/>
      <point x="954" y="479" type="curve" smooth="yes"/>
      <point x="954" y="387"/>
      <point x="897" y="327"/>
    </contour>
  </outline>
</glyph>
<glyph name="quotesingle" format="1">
  <advance width="822"/>
  <unicode hex="0027"/>
  <outline>
    <contour>
      <point x="286" y="706" type="line"/>
      <point x="494" y="706" type="line"/>
      <point x="514" y="847"/>
      <point x="590" y="1353"/>
      <point x="617" y="1551" type="curve" smooth="yes"/>
      <point x="620" y="1577"/>
      <point x="624" y="1586"/>
      <point x="623" y="1578" type="curve" smooth="yes"/>
      <point x="193" y="1578" type="line"/>
      <point x="193" y="1586"/>
      <point x="199" y="1547"/>
      <point x="198" y="1555" type="curve"/>
    </contour>
  </outline>
</glyph>
<glyph name="parenright" format="1">
  <advance width="966"/>
  <unicode hex="0029"/>
  <outline>
    <contour>
      <point x="293" y="-344" type="line"/>
      <point x="546" y="-146"/>
      <point x="773" y="200"/>
      <point x="773" y="688" type="curve" smooth="yes"/>
      <point x="773" y="1175"/>
      <point x="547" y="1509"/>
      <point x="287" y="1710" type="curve"/>
      <point x="99" y="1459" type="line"/>
      <point x="262" y="1293"/>
      <point x="403" y="1050"/>
      <point x="403" y="694" type="curve" smooth="yes"/>
      <point x="403" y="344"/>
      <point x="273" y="67"/>
      <point x="111" y="-92" type="curve"/>
    </contour>
  </outline>
</glyph>
<glyph name="asterisk" format="1">
  <advance width="1010"/>
  <unicode hex="002A"/>
  <outline>
    <contour>
      <point x="661" y="775" type="line"/>
      <point x="854" y="893" type="line"/>
      <point x="716" y="1137" type="line"/>
      <point x="975" y="1137" type="line"/>
      <point x="975" y="1322" type="line"/>
      <point x="711" y="1322" type="line"/>
      <point x="857" y="1574" type="line"/>
      <point x="779" y="1620"/>
      <point x="745" y="1639"/>
      <point x="666" y="1686" type="curve"/>
      <point x="626" y="1620"/>
      <point x="641" y="1655"/>
      <point x="525" y="1454" type="curve"/>
      <point x="388" y="1685" type="line"/>
      <point x="202" y="1580" type="line"/>
      <point x="346" y="1322" type="line"/>
      <point x="58" y="1322" type="line"/>
      <point x="58" y="1137" type="line"/>
      <point x="346" y="1137" type="line"/>
      <point x="206" y="893" type="line"/>
      <point x="284" y="847"/>
      <point x="319" y="826"/>
      <point x="398" y="778" type="curve"/>
      <point x="423" y="822"/>
      <point x="393" y="767"/>
      <point x="530" y="1005" type="curve"/>
    </contour>
  </outline>
</glyph>
<glyph name="plus" format="1">
  <advance width="1087"/>
  <unicode hex="002B"/>
  <outline>
    <contour>
      <point x="377" y="67" type="line"/>
      <point x="722" y="67" type="line"/>
      <point x="722" y="424" type="line"/>
      <point x="987" y="424" type="line"/>
      <point x="987" y="727" type="line"/>
      <point x="722" y="727" type="line"/>
      <point x="722" y="1080" type="line"/>
      <point x="377" y="1080" type="line"/>
      <point x="377" y="727" type="line"/>
      <point x="114" y="727" type="line"/>
      <point x="114" y="424" type="line"/>
      <point x="377" y="424" type="line"/>
    </contour>
  </outline>
</glyph>
<glyph name="hyphen" format="1">
  <advance width="1196"/>
  <unicode hex="002D"/>
  <outline>
    <contour>
      <point x="169" y="600" type="line"/>
      <point x="1008" y="600" type="line"/>
      <point x="1008" y="902" type="line"/>
      <point x="169" y="902" type="line"/>
    </contour>
  </outline>
</glyph>
<glyph name="period" format="1">
  <advance width="616"/>
  <unicode hex="002E"/>
  <outline>
    <contour>
      <point x="315" y="7" type="curve" smooth="yes"/>
      <point x="441" y="7"/>
      <point x="545" y="103"/>
      <point x="545" y="231" type="curve" smooth="yes"/>
      <point x="545" y="358"/>
      <point x="439" y="456"/>
      <point x="315" y="456" type="curve" smooth="yes"/>
      <point x="188" y="456"/>
      <point x="90" y="358"/>
      <point x="90" y="231" type="curve" smooth="yes"/>
      <point x="90" y="109"/>
      <point x="184" y="7"/>
    </contour>
  </outline>
</glyph>
<glyph name="zero" format="1">
  <advance width="1489"/>
  <unicode hex="0030"/>
  <outline>
    <contour>
      <point x="740" y="280" type="curve" smooth="yes"/>
      <point x="589" y="280"/>
      <point x="536" y="389"/>
      <point x="536" y="592" type="curve" smooth="yes"/>
      <point x="536" y="749"/>
      <point x="580" y="898"/>
      <point x="740" y="898" type="curve" smooth="yes"/>
      <point x="902" y="898"/>
      <point x="952" y="768"/>
      <point x="952" y="600" type="curve" smooth="yes"/>
      <point x="952" y="410"/>
      <point x="903" y="280"/>
    </contour>
    <contour>
      <point x="738" y="-25" type="curve" smooth="yes"/>
      <point x="1119" y="-25"/>
      <point x="1335" y="198"/>
      <point x="1335" y="579" type="curve" smooth="yes"/>
      <point x="1335" y="973"/>
      <point x="1139" y="1204"/>
      <point x="740" y="1204" type="curve" smooth="yes"/>
      <point x="358" y="1204"/>
      <point x="150" y="985"/>
      <point x="150" y="590" type="curve" smooth="yes"/>
      <point x="150" y="207"/>
      <point x="353" y="-25"/>
    </contour>
  </outline>
</glyph>
<glyph name="one" format="1">
  <advance width="1013"/>
  <unicode hex="0031"/>
  <outline>
    <contour>
      <point x="351" y="0" type="line"/>
      <point x="761" y="0" type="line"/>
      <point x="761" y="1159" type="line"/>
      <point x="376" y="1159" type="line"/>
      <point x="105" y="1055" type="line"/>
      <point x="215" y="774" type="line"/>
      <point x="351" y="828" type="line"/>
    </contour>
  </outline>
</glyph>
<glyph name="two" format="1">
  <advance width="1220"/>
  <unicode hex="0032"/>
  <outline>
    <contour>
      <point x="187" y="0" type="line"/>
      <point x="1062" y="0" type="line"/>
      <point x="1062" y="313" type="line"/>
      <point x="777" y="313" type="line"/>
      <point x="747" y="289"/>
      <point x="904" y="437"/>
      <point x="864" y="404" type="curve" smooth="yes"/>
      <point x="1073" y="594"/>
      <point x="1105" y="679"/>
      <point x="1105" y="830" type="curve" smooth="yes"/>
      <point x="1105" y="1106"/>
      <point x="836" y="1188"/>
      <point x="621" y="1188" type="curve" smooth="yes"/>
      <point x="422" y="1188"/>
      <point x="147" y="1050"/>
      <point x="126" y="1047" type="curve"/>
      <point x="231" y="760" type="line"/>
      <point x="279" y="824"/>
      <point x="517" y="878"/>
      <point x="599" y="880" type="curve"/>
      <point x="695" y="880"/>
      <point x="706" y="835"/>
      <point x="706" y="763" type="curve" smooth="yes"/>
      <point x="706" y="673"/>
      <point x="538" y="546"/>
      <point x="480" y="497" type="curve" smooth="yes"/>
      <point x="187" y="244" type="line"/>
    </contour>
  </outline>
</glyph>
<glyph name="three" format="1">
  <advance width="1253"/>
  <unicode hex="0033"/>
  <outline>
    <contour>
      <point x="532" y="-167" type="curve"/>
      <point x="857" y="-167"/>
      <point x="1070" y="-37"/>
      <point x="1070" y="267" type="curve" smooth="yes"/>
      <point x="1070" y="378"/>
      <point x="959" y="516"/>
      <point x="826" y="548" type="curve"/>
      <point x="954" y="588"/>
      <point x="1035" y="692"/>
      <point x="1035" y="799" type="curve" smooth="yes"/>
      <point x="1035" y="1097"/>
      <point x="837" y="1200"/>
      <point x="515" y="1200" type="curve" smooth="yes"/>
      <point x="311" y="1200"/>
      <point x="181" y="1121"/>
      <point x="132" y="1089" type="curve"/>
      <point x="271" y="823" type="line"/>
      <point x="290" y="830"/>
      <point x="435" y="892"/>
      <point x="552" y="892" type="curve" smooth="yes"/>
      <point x="629" y="892"/>
      <point x="669" y="858"/>
      <point x="669" y="824" type="curve" smooth="yes"/>
      <point x="669" y="731"/>
      <point x="544" y="692"/>
      <point x="409" y="692" type="curve"/>
      <point x="409" y="406" type="line"/>
      <point x="549" y="413"/>
      <point x="690" y="353"/>
      <point x="690" y="257" type="curve" smooth="yes"/>
      <point x="690" y="169"/>
      <point x="642" y="137"/>
      <point x="517" y="137" type="curve" smooth="yes"/>
      <point x="378" y="137"/>
      <point x="253" y="198"/>
      <point x="266" y="188" type="curve"/>
      <point x="170" y="-110" type="line"/>
      <point x="205" y="-121"/>
      <point x="318" y="-169"/>
    </contour>
  </outline>
</glyph>
<glyph name="six" format="1">
  <advance width="1279"/>
  <unicode hex="0036"/>
  <outline>
    <contour>
      <point x="714" y="-78" type="curve" smooth="yes"/>
      <point x="1035" y="-78"/>
      <point x="1215" y="125"/>
      <point x="1215" y="406" type="curve" smooth="yes"/>
      <point x="1215" y="662"/>
      <point x="1022" y="905"/>
      <point x="719" y="905" type="curve" smooth="yes"/>
      <point x="710" y="905"/>
      <point x="695" y="914"/>
      <point x="662" y="942" type="curve"/>
      <point x="763" y="993"/>
      <point x="868" y="1030"/>
      <point x="1036" y="1063" type="curve"/>
      <point x="942" y="1373" type="line"/>
      <point x="523" y="1263"/>
      <point x="145" y="999"/>
      <point x="145" y="468" type="curve" smooth="yes"/>
      <point x="145" y="166"/>
      <point x="366" y="-78"/>
    </contour>
    <contour>
      <point x="711" y="227" type="curve" smooth="yes"/>
      <point x="583" y="227"/>
      <point x="535" y="314"/>
      <point x="528" y="479" type="curve"/>
      <point x="528" y="463"/>
      <point x="528" y="543"/>
      <point x="526" y="527" type="curve"/>
      <point x="592" y="585"/>
      <point x="627" y="607"/>
      <point x="709" y="607" type="curve" smooth="yes"/>
      <point x="800" y="607"/>
      <point x="848" y="571"/>
      <point x="848" y="471" type="curve" smooth="yes"/>
      <point x="848" y="343"/>
      <point x="840" y="227"/>
    </contour>
  </outline>
</glyph>
<glyph name="seven" format="1">
  <advance width="1131"/>
  <unicode hex="0037"/>
  <outline>
    <contour>
      <point x="527" y="-259" type="line"/>
      <point x="1121" y="943" type="line"/>
      <point x="1030" y="1146" type="line"/>
      <point x="135" y="1146" type="line"/>
      <point x="135" y="848" type="line"/>
      <point x="654" y="848" type="line"/>
      <point x="180" y="-106" type="line"/>
    </contour>
  </outline>
</glyph>
<glyph name="eight" format="1">
  <advance width="1352"/>
  <unicode hex="0038"/>
  <outline>
    <contour>
      <point x="674" y="-119" type="curve" smooth="yes"/>
      <point x="946" y="-119"/>
      <point x="1206" y="-1"/>
      <point x="1206" y="292" type="curve" smooth="yes"/>
      <point x="1206" y="471"/>
      <point x="1039" y="597"/>
      <point x="905" y="603" type="curve"/>
      <point x="1056" y="625"/>
      <point x="1169" y="764"/>
      <point x="1169" y="924" type="curve" smooth="yes"/>
      <point x="1169" y="1172"/>
      <point x="964" y="1319"/>
      <point x="674" y="1319" type="curve" smooth="yes"/>
      <point x="387" y="1319"/>
      <point x="184" y="1174"/>
      <point x="184" y="924" type="curve" smooth="yes"/>
      <point x="184" y="762"/>
      <point x="299" y="625"/>
      <point x="447" y="603" type="curve"/>
      <point x="317" y="595"/>
      <point x="146" y="473"/>
      <point x="146" y="294" type="curve" smooth="yes"/>
      <point x="146" y="-1"/>
      <point x="402" y="-119"/>
    </contour>
    <contour>
      <point x="674" y="194" type="curve" smooth="yes"/>
      <point x="570" y="194"/>
      <point x="524" y="229"/>
      <point x="524" y="313" type="curve" smooth="yes"/>
      <point x="524" y="424"/>
      <point x="571" y="485"/>
      <point x="674" y="485" type="curve" smooth="yes"/>
      <point x="778" y="485"/>
      <point x="828" y="428"/>
      <point x="828" y="314" type="curve" smooth="yes"/>
      <point x="828" y="229"/>
      <point x="781" y="194"/>
    </contour>
    <contour>
      <point x="674" y="778" type="curve" smooth="yes"/>
      <point x="573" y="778"/>
      <point x="549" y="805"/>
      <point x="549" y="905" type="curve" smooth="yes"/>
      <point x="549" y="972"/>
      <point x="573" y="1019"/>
      <point x="674" y="1019" type="curve" smooth="yes"/>
      <point x="774" y="1019"/>
      <point x="803" y="974"/>
      <point x="803" y="906" type="curve" smooth="yes"/>
      <point x="803" y="805"/>
      <point x="777" y="778"/>
    </contour>
  </outline>
</glyph>
<glyph name="nine" format="1">
  <advance width="1277"/>
  <unicode hex="0039"/>
  <outline>
    <contour>
      <point x="390" y="-312" type="line"/>
      <point x="683" y="-249"/>
      <point x="1189" y="36"/>
      <point x="1189" y="594" type="curve" smooth="yes"/>
      <point x="1189" y="954"/>
      <point x="956" y="1139"/>
      <point x="600" y="1139" type="curve" smooth="yes"/>
      <point x="316" y="1139"/>
      <point x="116" y="940"/>
      <point x="116" y="661" type="curve" smooth="yes"/>
      <point x="116" y="413"/>
      <point x="277" y="200"/>
      <point x="548" y="200" type="curve" smooth="yes"/>
      <point x="594" y="200"/>
      <point x="653" y="203"/>
      <point x="735" y="204" type="curve"/>
      <point x="632" y="123"/>
      <point x="498" y="42"/>
      <point x="298" y="1" type="curve"/>
    </contour>
    <contour>
      <point x="659" y="480" type="curve" smooth="yes"/>
      <point x="564" y="480"/>
      <point x="485" y="487"/>
      <point x="485" y="630" type="curve"/>
      <point x="488" y="783"/>
      <point x="497" y="834"/>
      <point x="630" y="834" type="curve" smooth="yes"/>
      <point x="757" y="834"/>
      <point x="809" y="749"/>
      <point x="813" y="606" type="curve"/>
      <point x="813" y="622"/>
      <point x="792" y="446"/>
      <point x="794" y="462" type="curve"/>
      <point x="722" y="473"/>
      <point x="702" y="480"/>
    </contour>
  </outline>
</glyph>
<glyph name="colon" format="1">
  <advance width="848"/>
  <unicode hex="003A"/>
  <outline>
    <contour>
      <point x="200" y="0" type="line"/>
      <point x="649" y="0" type="line"/>
      <point x="649" y="490" type="line"/>
      <point x="200" y="490" type="line"/>
    </contour>
    <contour>
      <point x="200" y="795" type="line"/>
      <point x="649" y="795" type="line"/>
      <point x="649" y="1280" type="line"/>
      <point x="200" y="1280" type="line"/>
    </contour>
  </outline>
</glyph>
<glyph name="semicolon" format="1">
  <advance width="832"/>
  <unicode hex="003B"/>
  <outline>
    <contour>
      <point x="286" y="-328" type="line"/>
      <point x="462" y="-275"/>
      <point x="684" y="-217"/>
      <point x="684" y="56" type="curve" smooth="yes"/>
      <point x="684" y="462" type="line"/>
      <point x="219" y="462" type="line"/>
      <point x="219" y="0" type="line"/>
      <point x="415" y="0" type="line"/>
      <point x="414" y="-105"/>
      <point x="363" y="-154"/>
      <point x="220" y="-206" type="curve"/>
    </contour>
    <contour>
      <point x="215" y="795" type="line"/>
      <point x="681" y="795" type="line"/>
      <point x="681" y="1280" type="line"/>
      <point x="215" y="1280" type="line"/>
    </contour>
  </outline>
</glyph>
<glyph name="question" format="1">
  <advance width="1124"/>
  <unicode hex="003F"/>
  <outline>
    <contour>
      <point x="227" y="470" type="line"/>
      <point x="602" y="470" type="line"/>
      <point x="602" y="701" type="line"/>
      <point x="1156" y="840"/>
      <point x="1059" y="1135"/>
      <point x="1059" y="1120" type="curve" smooth="yes"/>
      <point x="1059" y="1421"/>
      <point x="807" y="1546"/>
      <point x="472" y="1546" type="curve" smooth="yes"/>
      <point x="274" y="1546"/>
      <point x="144" y="1526"/>
      <point x="7" y="1458" type="curve"/>
      <point x="97" y="1163" type="line" smooth="yes"/>
      <point x="62" y="1145"/>
      <point x="333" y="1229"/>
      <point x="437" y="1229" type="curve" smooth="yes"/>
      <point x="556" y="1229"/>
      <point x="664" y="1226"/>
      <point x="664" y="1107" type="curve" smooth="yes"/>
      <point x="664" y="957"/>
      <point x="399" y="915"/>
      <point x="227" y="849" type="curve"/>
    </contour>
    <contour>
      <point x="441" y="-80" type="curve" smooth="yes"/>
      <point x="570" y="-80"/>
      <point x="663" y="21"/>
      <point x="663" y="149" type="curve" smooth="yes"/>
      <point x="663" y="278"/>
      <point x="569" y="377"/>
      <point x="439" y="377" type="curve" smooth="yes"/>
      <point x="309" y="377"/>
      <point x="219" y="277"/>
      <point x="219" y="146" type="curve" smooth="yes"/>
      <point x="219" y="17"/>
      <point x="313" y="-80"/>
    </contour>
  </outline>
</glyph>
<glyph name="at" format="1">
  <advance width="1992"/>
  <unicode hex="0040"/>
  <outline>
    <contour>
      <point x="987" y="-174" type="curve" smooth="yes"/>
      <point x="1134" y="-174"/>
      <point x="1245" y="-152"/>
      <point x="1316" y="-101" type="curve"/>
      <point x="1258" y="97" type="line"/>
      <point x="1168" y="61"/>
      <point x="1107" y="51"/>
      <point x="1039" y="51" type="curve" smooth="yes"/>
      <point x="593" y="51"/>
      <point x="373" y="260"/>
      <point x="370" y="604" type="curve" smooth="yes"/>
      <point x="366" y="966"/>
      <point x="665" y="1304"/>
      <point x="1050" y="1304" type="curve" smooth="yes"/>
      <point x="1442" y="1304"/>
      <point x="1657" y="1044"/>
      <point x="1657" y="709" type="curve" smooth="yes"/>
      <point x="1657" y="612"/>
      <point x="1580" y="423"/>
      <point x="1453" y="423" type="curve" smooth="yes"/>
      <point x="1424" y="423"/>
      <point x="1395" y="430"/>
      <point x="1352" y="447" type="curve"/>
      <point x="1352" y="447"/>
      <point x="1451" y="881"/>
      <point x="1451" y="896" type="curve" smooth="yes"/>
      <point x="1448" y="1061"/>
      <point x="1209" y="1129"/>
      <point x="1043" y="1129" type="curve" smooth="yes"/>
      <point x="756" y="1130"/>
      <point x="542" y="925"/>
      <point x="554" y="637" type="curve" smooth="yes"/>
      <point x="562" y="353"/>
      <point x="812" y="230"/>
      <point x="944" y="230" type="curve" smooth="yes"/>
      <point x="1107" y="229"/>
      <point x="1145" y="288"/>
      <point x="1208" y="445" type="curve"/>
      <point x="1206" y="439"/>
      <point x="1205" y="472"/>
      <point x="1205" y="470" type="curve" smooth="yes"/>
      <point x="1205" y="334"/>
      <point x="1335" y="248"/>
      <point x="1470" y="248" type="curve" smooth="yes"/>
      <point x="1785" y="248"/>
      <point x="1893" y="445"/>
      <point x="1893" y="763" type="curve" smooth="yes"/>
      <point x="1893" y="1202"/>
      <point x="1569" y="1532"/>
      <point x="1086" y="1532" type="curve" smooth="yes"/>
      <point x="410" y="1532"/>
      <point x="89" y="1031"/>
      <point x="93" y="604" type="curve" smooth="yes"/>
      <point x="97" y="146"/>
      <point x="465" y="-174"/>
    </contour>
    <contour>
      <point x="946" y="413" type="curve"/>
      <point x="891" y="413"/>
      <point x="789" y="531"/>
      <point x="783" y="603" type="curve" smooth="yes"/>
      <point x="774" y="847"/>
      <point x="905" y="924"/>
      <point x="1048" y="924" type="curve" smooth="yes"/>
      <point x="1138" y="923"/>
      <point x="1246" y="904"/>
      <point x="1225" y="904" type="curve" smooth="yes"/>
      <point x="1235" y="1002"/>
      <point x="1065" y="421"/>
    </contour>
  </outline>
</glyph>
<glyph name="A" format="1">
  <advance width="1511"/>
  <unicode hex="0041"/>
  <outline>
    <contour>
      <point x="10" y="0" type="line"/>
      <point x="436" y="0" type="line"/>
      <point x="543" y="336" type="line"/>
      <point x="968" y="336" type="line"/>
      <point x="1075" y="0" type="line"/>
      <point x="1501" y="0" type="line"/>
      <point x="980" y="1578" type="line"/>
      <point x="532" y="1578" type="line"/>
    </contour>
    <contour>
      <point x="595" y="543" type="line"/>
      <point x="764" y="1095" type="line"/>
      <point x="916" y="543" type="line"/>
    </contour>
  </outline>
</glyph>
<glyph name="B" format="1">
  <advance width="1527"/>
  <unicode hex="0042"/>
  <outline>
    <contour>
      <point x="174" y="0" type="line"/>
      <point x="757" y="0" type="line" smooth="yes"/>
      <point x="1089" y="0"/>
      <point x="1434" y="71"/>
      <point x="1434" y="471" type="curve" smooth="yes"/>
      <point x="1434" y="718"/>
      <point x="1253" y="787"/>
      <point x="1041" y="822" type="curve"/>
      <point x="1209" y="835"/>
      <point x="1386" y="966"/>
      <point x="1386" y="1149" type="curve" smooth="yes"/>
      <point x="1386" y="1558"/>
      <point x="908" y="1578"/>
      <point x="614" y="1578" type="curve" smooth="yes"/>
      <point x="174" y="1578" type="line"/>
    </contour>
    <contour>
      <point x="610" y="297" type="line"/>
      <point x="610" y="672" type="line"/>
      <point x="699" y="672" type="line" smooth="yes"/>
      <point x="863" y="672"/>
      <point x="999" y="663"/>
      <point x="999" y="465" type="curve" smooth="yes"/>
      <point x="999" y="271"/>
      <point x="820" y="297"/>
      <point x="688" y="297" type="curve" smooth="yes"/>
    </contour>
    <contour>
      <point x="610" y="934" type="line"/>
      <point x="610" y="1279" type="line"/>
      <point x="740" y="1279" type="line" smooth="yes"/>
      <point x="871" y="1279"/>
      <point x="998" y="1279"/>
      <point x="998" y="1114" type="curve" smooth="yes"/>
      <point x="998" y="963"/>
      <point x="818" y="934"/>
      <point x="703" y="934" type="curve" smooth="yes"/>
    </contour>
  </outline>
</glyph>
<glyph name="C" format="1">
  <advance width="1341"/>
  <unicode hex="0043"/>
  <outline>
    <contour>
      <point x="852" y="-31" type="curve" smooth="yes"/>
      <point x="1094" y="-31"/>
      <point x="1247" y="23"/>
      <point x="1300" y="79" type="curve"/>
      <point x="1186" y="362" type="line"/>
      <point x="1078" y="284"/>
      <point x="1026" y="276"/>
      <point x="909" y="280" type="curve" smooth="yes"/>
      <point x="755" y="287"/>
      <point x="538" y="408"/>
      <point x="538" y="781" type="curve" smooth="yes"/>
      <point x="538" y="1188"/>
      <point x="756" y="1271"/>
      <point x="882" y="1290" type="curve" smooth="yes"/>
      <point x="990" y="1301"/>
      <point x="1051" y="1300"/>
      <point x="1196" y="1204" type="curve"/>
      <point x="1312" y="1489" type="line"/>
      <point x="1168" y="1588"/>
      <point x="1007" y="1610"/>
      <point x="860" y="1603" type="curve" smooth="yes"/>
      <point x="441" y="1584"/>
      <point x="97" y="1339"/>
      <point x="97" y="792" type="curve" smooth="yes"/>
      <point x="97" y="237"/>
      <point x="447" y="-31"/>
    </contour>
  </outline>
</glyph>
<glyph name="D" format="1">
  <advance width="1678"/>
  <unicode hex="0044"/>
  <outline>
    <contour>
      <point x="376" y="1283" type="curve"/>
      <point x="665" y="1283" type="line" smooth="yes"/>
      <point x="1018" y="1283"/>
      <point x="1141" y="1156"/>
      <point x="1141" y="783" type="curve" smooth="yes"/>
      <point x="1141" y="410"/>
      <point x="1020" y="297"/>
      <point x="665" y="297" type="curve" smooth="yes"/>
      <point x="376" y="297" type="line"/>
      <point x="376" y="297"/>
      <point x="376" y="0"/>
      <point x="376" y="0" type="curve"/>
      <point x="704" y="0" type="line" smooth="yes"/>
      <point x="1236" y="0"/>
      <point x="1581" y="219"/>
      <point x="1581" y="780" type="curve" smooth="yes"/>
      <point x="1581" y="1349"/>
      <point x="1250" y="1578"/>
      <point x="704" y="1578" type="curve" smooth="yes"/>
      <point x="376" y="1578" type="line"/>
      <point x="376" y="1578"/>
      <point x="376" y="1283"/>
    </contour>
    <component base="uc_main_stem" xOffset="2"/>
  </outline>
</glyph>
<glyph name="E" format="1">
  <advance width="1333"/>
  <unicode hex="0045"/>
  <outline>
    <contour>
      <point x="1233" y="1262" type="line"/>
      <point x="1233" y="1578" type="line"/>
      <point x="412" y="1578" type="line"/>
      <point x="412" y="1578"/>
      <point x="411" y="1262"/>
      <point x="411" y="1262" type="curve"/>
    </contour>
    <contour>
      <point x="1165" y="675" type="line"/>
      <point x="1165" y="944" type="line"/>
      <point x="412" y="944" type="line"/>
      <point x="412" y="944"/>
      <point x="412" y="675"/>
      <point x="412" y="675" type="curve"/>
    </contour>
    <contour>
      <point x="1225" y="0" type="line"/>
      <point x="1225" y="317" type="line"/>
      <point x="411" y="317" type="line"/>
      <point x="411" y="317"/>
      <point x="412" y="0"/>
      <point x="412" y="0" type="curve"/>
    </contour>
    <component base="uc_main_stem" xOffset="2"/>
  </outline>
</glyph>
<glyph name="F" format="1">
  <advance width="1286"/>
  <unicode hex="0046"/>
  <outline>
    <contour>
      <point x="174" y="0" type="line"/>
      <point x="608" y="0" type="line"/>
      <point x="608" y="614" type="line"/>
      <point x="1192" y="614" type="line"/>
      <point x="1192" y="882" type="line"/>
      <point x="608" y="882" type="line"/>
      <point x="608" y="1261" type="line"/>
      <point x="1288" y="1261" type="line"/>
      <point x="1288" y="1578" type="line"/>
      <point x="174" y="1578" type="line"/>
    </contour>
  </outline>
</glyph>
<glyph name="G" format="1">
  <advance width="1588"/>
  <unicode hex="0047"/>
  <outline>
    <contour>
      <point x="791" y="-23" type="curve" smooth="yes"/>
      <point x="954" y="-23"/>
      <point x="1064" y="72"/>
      <point x="1119" y="156" type="curve"/>
      <point x="1167" y="0" type="line"/>
      <point x="1435" y="0" type="line"/>
      <point x="1435" y="905" type="line"/>
      <point x="744" y="905" type="line"/>
      <point x="744" y="644" type="line"/>
      <point x="1085" y="644" type="line"/>
      <point x="1085" y="281" type="line"/>
      <point x="939" y="297"/>
      <point x="875" y="287"/>
      <point x="825" y="287" type="curve" smooth="yes"/>
      <point x="701" y="287"/>
      <point x="538" y="380"/>
      <point x="538" y="763" type="curve" smooth="yes"/>
      <point x="538" y="1186"/>
      <point x="741" y="1289"/>
      <point x="911" y="1289" type="curve" smooth="yes"/>
      <point x="1037" y="1289"/>
      <point x="1194" y="1225"/>
      <point x="1283" y="1160" type="curve"/>
      <point x="1405" y="1451" type="line"/>
      <point x="1227" y="1544"/>
      <point x="1059" y="1599"/>
      <point x="881" y="1599" type="curve" smooth="yes"/>
      <point x="501" y="1599"/>
      <point x="97" y="1373"/>
      <point x="97" y="764" type="curve" smooth="yes"/>
      <point x="97" y="187"/>
      <point x="392" y="-23"/>
    </contour>
  </outline>
</glyph>
<glyph name="H" format="1">
  <advance width="1677"/>
  <unicode hex="0048"/>
  <outline>
    <contour>
      <point x="1296" y="681" type="line"/>
      <point x="1296" y="681"/>
      <point x="1296" y="950"/>
      <point x="1296" y="950" type="curve"/>
      <point x="430" y="950" type="line"/>
      <point x="430" y="950"/>
      <point x="430" y="681"/>
      <point x="430" y="681" type="curve"/>
    </contour>
    <component base="uc_main_stem" xOffset="891"/>
    <component base="uc_main_stem" xOffset="2"/>
  </outline>
</glyph>
<glyph name="I" format="1">
  <advance width="897"/>
  <unicode hex="0049"/>
  <outline>
    <contour>
      <point x="71" y="0" type="line"/>
      <point x="826" y="0" type="line"/>
      <point x="826" y="288" type="line"/>
      <point x="669" y="288" type="line"/>
      <point x="669" y="1292" type="line"/>
      <point x="826" y="1292" type="line"/>
      <point x="826" y="1578" type="line"/>
      <point x="71" y="1578" type="line"/>
      <point x="71" y="1292" type="line"/>
      <point x="228" y="1292" type="line"/>
      <point x="228" y="288" type="line"/>
      <point x="71" y="288" type="line"/>
    </contour>
  </outline>
</glyph>
<glyph name="J" format="1">
  <advance width="959"/>
  <unicode hex="004A"/>
  <outline>
    <contour>
      <point x="145" y="-84" type="line"/>
      <point x="552" y="-72"/>
      <point x="786" y="67"/>
      <point x="786" y="504" type="curve" smooth="yes"/>
      <point x="786" y="1578" type="line"/>
      <point x="348" y="1578" type="line"/>
      <point x="348" y="516" type="line" smooth="yes"/>
      <point x="348" y="282"/>
      <point x="246" y="222"/>
      <point x="33" y="199" type="curve"/>
    </contour>
  </outline>
</glyph>
<glyph name="K" format="1">
  <advance width="1525"/>
  <unicode hex="004B"/>
  <outline>
    <contour>
      <point x="174" y="0" type="line"/>
      <point x="610" y="0" type="line"/>
      <point x="610" y="635" type="line"/>
      <point x="619" y="635" type="line"/>
      <point x="1039" y="0" type="line"/>
      <point x="1563" y="0" type="line"/>
      <point x="1026" y="778" type="line"/>
      <point x="1533" y="1578" type="line"/>
      <point x="1040" y="1578" type="line"/>
      <point x="634" y="920" type="line"/>
      <point x="610" y="920" type="line"/>
      <point x="610" y="1578" type="line"/>
      <point x="174" y="1578" type="line"/>
    </contour>
  </outline>
</glyph>
<glyph name="L" format="1">
  <advance width="1205"/>
  <unicode hex="004C"/>
  <outline>
    <contour>
      <point x="174" y="0" type="line"/>
      <point x="1184" y="0" type="line"/>
      <point x="1184" y="316" type="line"/>
      <point x="609" y="316" type="line"/>
      <point x="609" y="1578" type="line"/>
      <point x="174" y="1578" type="line"/>
    </contour>
  </outline>
</glyph>
<glyph name="M" format="1">
  <advance width="2072"/>
  <unicode hex="004D"/>
  <outline>
    <contour>
      <point x="174" y="0" type="line"/>
      <point x="531" y="0" type="line"/>
      <point x="531" y="963" type="line"/>
      <point x="835" y="-43" type="line"/>
      <point x="1248" y="-43" type="line"/>
      <point x="1541" y="963" type="line"/>
      <point x="1541" y="0" type="line"/>
      <point x="1898" y="0" type="line"/>
      <point x="1898" y="1578" type="line"/>
      <point x="1402" y="1578" type="line"/>
      <point x="1027" y="442" type="line"/>
      <point x="668" y="1578" type="line"/>
      <point x="174" y="1578" type="line"/>
    </contour>
  </outline>
</glyph>
<glyph name="N" format="1">
  <advance width="1710"/>
  <unicode hex="004E"/>
  <outline>
    <contour>
      <point x="174" y="0" type="line"/>
      <point x="563" y="0" type="line"/>
      <point x="563" y="946" type="line"/>
      <point x="1109" y="0" type="line"/>
      <point x="1536" y="0" type="line"/>
      <point x="1536" y="1578" type="line"/>
      <point x="1149" y="1578" type="line"/>
      <point x="1149" y="652" type="line"/>
      <point x="619" y="1578" type="line"/>
      <point x="174" y="1578" type="line"/>
    </contour>
  </outline>
</glyph>
<glyph name="O" format="1">
  <advance width="1670"/>
  <unicode hex="004F"/>
  <outline>
    <contour>
      <point x="836" y="279" type="curve" smooth="yes"/>
      <point x="608" y="279"/>
      <point x="538" y="492"/>
      <point x="538" y="791" type="curve" smooth="yes"/>
      <point x="538" y="1090"/>
      <point x="608" y="1293"/>
      <point x="836" y="1293" type="curve" smooth="yes"/>
      <point x="1061" y="1293"/>
      <point x="1132" y="1092"/>
      <point x="1132" y="791" type="curve" smooth="yes"/>
      <point x="1132" y="501"/>
      <point x="1068" y="279"/>
    </contour>
    <contour>
      <point x="836" y="-20" type="curve" smooth="yes"/>
      <point x="1328" y="-20"/>
      <point x="1572" y="267"/>
      <point x="1572" y="791" type="curve" smooth="yes"/>
      <point x="1572" y="1323"/>
      <point x="1311" y="1599"/>
      <point x="836" y="1599" type="curve" smooth="yes"/>
      <point x="358" y="1599"/>
      <point x="98" y="1336"/>
      <point x="98" y="791" type="curve" smooth="yes"/>
      <point x="98" y="267"/>
      <point x="342" y="-20"/>
    </contour>
  </outline>
</glyph>
<glyph name="Q" format="1">
  <advance width="1641"/>
  <unicode hex="0051"/>
  <outline>
    <contour>
      <point x="1084" y="-418" type="line"/>
      <point x="1280" y="-211" type="line"/>
      <point x="1027" y="-6" type="line"/>
      <point x="1374" y="70"/>
      <point x="1550" y="335"/>
      <point x="1550" y="791" type="curve" smooth="yes"/>
      <point x="1550" y="1326"/>
      <point x="1290" y="1599"/>
      <point x="818" y="1599" type="curve" smooth="yes"/>
      <point x="347" y="1599"/>
      <point x="90" y="1331"/>
      <point x="90" y="788" type="curve" smooth="yes"/>
      <point x="90" y="323"/>
      <point x="279" y="55"/>
      <point x="643" y="-9" type="curve"/>
    </contour>
    <contour>
      <point x="818" y="287" type="curve" smooth="yes"/>
      <point x="591" y="287"/>
      <point x="527" y="502"/>
      <point x="527" y="791" type="curve" smooth="yes"/>
      <point x="527" y="1097"/>
      <point x="601" y="1287"/>
      <point x="818" y="1287" type="curve" smooth="yes"/>
      <point x="1067" y="1287"/>
      <point x="1114" y="1015"/>
      <point x="1114" y="791" type="curve" smooth="yes"/>
      <point x="1114" y="496"/>
      <point x="1042" y="287"/>
    </contour>
  </outline>
</glyph>
<glyph name="R" format="1">
  <advance width="1552"/>
  <unicode hex="0052"/>
  <outline>
    <contour>
      <point x="174" y="0" type="line"/>
      <point x="610" y="0" type="line"/>
      <point x="610" y="640" type="line"/>
      <point x="659" y="640" type="line" smooth="yes"/>
      <point x="814" y="640"/>
      <point x="946" y="591"/>
      <point x="970" y="403" type="curve" smooth="yes"/>
      <point x="1018" y="0" type="line"/>
      <point x="1455" y="0" type="line"/>
      <point x="1407" y="498" type="line" smooth="yes"/>
      <point x="1385" y="730"/>
      <point x="1224" y="779"/>
      <point x="976" y="805" type="curve"/>
      <point x="1247" y="811"/>
      <point x="1441" y="882"/>
      <point x="1441" y="1164" type="curve" smooth="yes"/>
      <point x="1441" y="1381"/>
      <point x="1435" y="1578"/>
      <point x="708" y="1578" type="curve" smooth="yes"/>
      <point x="174" y="1578" type="line"/>
    </contour>
    <contour>
      <point x="610" y="913" type="line"/>
      <point x="610" y="1322" type="line"/>
      <point x="647" y="1322" type="line" smooth="yes"/>
      <point x="931" y="1322"/>
      <point x="996" y="1246"/>
      <point x="996" y="1108" type="curve" smooth="yes"/>
      <point x="996" y="959"/>
      <point x="852" y="913"/>
      <point x="531" y="913" type="curve" smooth="yes"/>
    </contour>
  </outline>
</glyph>
<glyph name="S" format="1">
  <advance width="1359"/>
  <unicode hex="0053"/>
  <outline>
    <contour>
      <point x="766" y="-31" type="curve" smooth="yes"/>
      <point x="1127" y="-31"/>
      <point x="1278" y="228"/>
      <point x="1278" y="433" type="curve" smooth="yes"/>
      <point x="1278" y="635"/>
      <point x="1224" y="761"/>
      <point x="917" y="913" type="curve" smooth="yes"/>
      <point x="941" y="905"/>
      <point x="600" y="1066"/>
      <point x="624" y="1057" type="curve" smooth="yes"/>
      <point x="496" y="1124"/>
      <point x="514" y="1139"/>
      <point x="514" y="1166" type="curve" smooth="yes"/>
      <point x="514" y="1227"/>
      <point x="564" y="1258"/>
      <point x="688" y="1258" type="curve" smooth="yes"/>
      <point x="842" y="1258"/>
      <point x="1001" y="1205"/>
      <point x="1105" y="1163" type="curve"/>
      <point x="1238" y="1494" type="line"/>
      <point x="1145" y="1530"/>
      <point x="920" y="1603"/>
      <point x="701" y="1603" type="curve" smooth="yes"/>
      <point x="398" y="1603"/>
      <point x="99" y="1508"/>
      <point x="99" y="1164" type="curve" smooth="yes"/>
      <point x="99" y="959"/>
      <point x="160" y="856"/>
      <point x="407" y="731" type="curve" smooth="yes"/>
      <point x="378" y="741"/>
      <point x="764" y="558"/>
      <point x="737" y="567" type="curve" smooth="yes"/>
      <point x="895" y="486"/>
      <point x="871" y="440"/>
      <point x="871" y="416" type="curve" smooth="yes"/>
      <point x="871" y="366"/>
      <point x="857" y="294"/>
      <point x="681" y="294" type="curve" smooth="yes"/>
      <point x="508" y="294"/>
      <point x="327" y="415"/>
      <point x="274" y="457" type="curve"/>
      <point x="138" y="115" type="line"/>
      <point x="334" y="-8"/>
      <point x="534" y="-31"/>
    </contour>
  </outline>
</glyph>
<glyph name="T" format="1">
  <advance width="1165"/>
  <unicode hex="0054"/>
  <outline>
    <contour>
      <point x="367" y="0" type="line"/>
      <point x="806" y="0" type="line"/>
      <point x="806" y="1261" type="line"/>
      <point x="1186" y="1261" type="line"/>
      <point x="1186" y="1578" type="line"/>
      <point x="-22" y="1578" type="line"/>
      <point x="-22" y="1261" type="line"/>
      <point x="367" y="1261" type="line"/>
    </contour>
  </outline>
</glyph>
<glyph name="U" format="1">
  <advance width="1654"/>
  <unicode hex="0055"/>
  <outline>
    <contour>
      <point x="828" y="-23" type="curve" smooth="yes"/>
      <point x="1286" y="-23"/>
      <point x="1514" y="163"/>
      <point x="1514" y="732" type="curve" smooth="yes"/>
      <point x="1514" y="1578" type="line"/>
      <point x="1078" y="1578" type="line"/>
      <point x="1078" y="728" type="line" smooth="yes"/>
      <point x="1078" y="401"/>
      <point x="1025" y="291"/>
      <point x="816" y="291" type="curve" smooth="yes"/>
      <point x="605" y="291"/>
      <point x="577" y="402"/>
      <point x="577" y="728" type="curve" smooth="yes"/>
      <point x="577" y="1578" type="line"/>
      <point x="140" y="1578" type="line"/>
      <point x="140" y="732" type="line" smooth="yes"/>
      <point x="140" y="164"/>
      <point x="371" y="-23"/>
    </contour>
  </outline>
</glyph>
<glyph name="V" format="1">
  <advance width="1493"/>
  <unicode hex="0056"/>
  <outline>
    <contour>
      <point x="538" y="0" type="line"/>
      <point x="951" y="0" type="line"/>
      <point x="1443" y="1578" type="line"/>
      <point x="1033" y="1578" type="line"/>
      <point x="752" y="533" type="line"/>
      <point x="441" y="1578" type="line"/>
      <point x="38" y="1578" type="line"/>
    </contour>
  </outline>
</glyph>
<glyph name="W" format="1">
  <advance width="2083"/>
  <unicode hex="0057"/>
  <outline>
    <contour>
      <point x="384" y="0" type="line"/>
      <point x="844" y="0" type="line"/>
      <point x="1043" y="1183" type="line"/>
      <point x="1249" y="0" type="line"/>
      <point x="1707" y="0" type="line"/>
      <point x="2023" y="1578" type="line"/>
      <point x="1627" y="1578" type="line"/>
      <point x="1475" y="498" type="line"/>
      <point x="1291" y="1594" type="line"/>
      <point x="796" y="1594" type="line"/>
      <point x="618" y="498" type="line"/>
      <point x="458" y="1578" type="line"/>
      <point x="60" y="1578" type="line"/>
    </contour>
  </outline>
</glyph>
<glyph name="X" format="1">
  <advance width="1391"/>
  <unicode hex="0058"/>
  <outline>
    <contour>
      <point x="-26" y="0" type="line"/>
      <point x="432" y="0" type="line"/>
      <point x="382" y="-84"/>
      <point x="746" y="517"/>
      <point x="696" y="434" type="curve"/>
      <point x="959" y="0" type="line"/>
      <point x="1417" y="0" type="line"/>
      <point x="939" y="796" type="line"/>
      <point x="1417" y="1578" type="line"/>
      <point x="962" y="1578" type="line"/>
      <point x="696" y="1113" type="line"/>
      <point x="429" y="1578" type="line"/>
      <point x="-26" y="1578" type="line"/>
      <point x="452" y="796" type="line"/>
    </contour>
  </outline>
</glyph>
<glyph name="Y" format="1">
  <advance width="1345"/>
  <unicode hex="0059"/>
  <outline>
    <contour>
      <point x="467" y="0" type="line"/>
      <point x="876" y="0" type="line"/>
      <point x="876" y="503" type="line"/>
      <point x="1384" y="1578" type="line"/>
      <point x="939" y="1578" type="line"/>
      <point x="671" y="966" type="line"/>
      <point x="725" y="859"/>
      <point x="343" y="1685"/>
      <point x="395" y="1578" type="curve"/>
      <point x="-39" y="1578" type="line"/>
      <point x="467" y="503" type="line"/>
    </contour>
  </outline>
</glyph>
<glyph name="Z" format="1">
  <advance width="1245"/>
  <unicode hex="005A"/>
  <outline>
    <contour>
      <point x="31" y="0" type="line"/>
      <point x="1180" y="0" type="line"/>
      <point x="1180" y="316" type="line"/>
      <point x="507" y="316" type="line"/>
      <point x="1178" y="1329" type="line"/>
      <point x="1178" y="1578" type="line"/>
      <point x="31" y="1578" type="line"/>
      <point x="31" y="1257" type="line"/>
      <point x="680" y="1257" type="line"/>
      <point x="31" y="278" type="line"/>
    </contour>
  </outline>
</glyph>
<glyph name="bracketleft" format="1">
  <advance width="1257"/>
  <unicode hex="005B"/>
  <outline>
    <contour>
      <point x="271" y="0" type="line"/>
      <point x="1054" y="0" type="line"/>
      <point x="1054" y="308" type="line"/>
      <point x="657" y="308" type="line"/>
      <point x="657" y="1270" type="line"/>
      <point x="1054" y="1270" type="line"/>
      <point x="1054" y="1578" type="line"/>
      <point x="271" y="1578" type="line"/>
    </contour>
  </outline>
</glyph>
<glyph name="grave" format="1">
  <advance width="1029"/>
  <unicode hex="0060"/>
  <outline>
    <contour>
      <point x="503" y="1674" type="line"/>
      <point x="699" y="1766" type="line"/>
      <point x="537" y="2421" type="line"/>
      <point x="167" y="2259" type="line"/>
    </contour>
  </outline>
</glyph>
<glyph name="a" format="1">
  <advance width="1289"/>
  <unicode hex="0061"/>
  <outline>
    <contour>
      <point x="689" y="253"/>
      <point x="630" y="219"/>
      <point x="545" y="225" type="curve" smooth="yes"/>
      <point x="463" y="231"/>
      <point x="429" y="287"/>
      <point x="423" y="359" type="curve" smooth="yes"/>
      <point x="414" y="474"/>
      <point x="510" y="506"/>
      <point x="609" y="506" type="curve" smooth="yes"/>
      <point x="644" y="506"/>
      <point x="712" y="501"/>
      <point x="746" y="494" type="curve"/>
      <point x="746" y="300" type="line"/>
    </contour>
    <contour>
      <point x="1155" y="0" type="line"/>
      <point x="1155" y="680" type="line" smooth="yes"/>
      <point x="1155" y="1026"/>
      <point x="989" y="1186"/>
      <point x="657" y="1186" type="curve" smooth="yes"/>
      <point x="517" y="1186"/>
      <point x="338" y="1157"/>
      <point x="147" y="1085" type="curve"/>
      <point x="218" y="832" type="line"/>
      <point x="363" y="889"/>
      <point x="477" y="909"/>
      <point x="557" y="909" type="curve" smooth="yes"/>
      <point x="698" y="909"/>
      <point x="746" y="843"/>
      <point x="746" y="725" type="curve" smooth="yes"/>
      <point x="746" y="678" type="line"/>
      <point x="681" y="696"/>
      <point x="598" y="702"/>
      <point x="528" y="702" type="curve" smooth="yes"/>
      <point x="331" y="702"/>
      <point x="84" y="636"/>
      <point x="78" y="360" type="curve" smooth="yes"/>
      <point x="72" y="99"/>
      <point x="234" y="-24"/>
      <point x="477" y="-19" type="curve" smooth="yes"/>
      <point x="657" y="-15"/>
      <point x="744" y="99"/>
      <point x="768" y="175" type="curve"/>
      <point x="834" y="0" type="line"/>
    </contour>
  </outline>
</glyph>
<glyph name="b" format="1">
  <advance width="1426"/>
  <unicode hex="0062"/>
  <outline>
    <contour>
      <point x="403" y="196"/>
      <point x="590" y="-20"/>
      <point x="851" y="-20" type="curve" smooth="yes"/>
      <point x="1097" y="-20"/>
      <point x="1344" y="166"/>
      <point x="1344" y="588" type="curve" smooth="yes"/>
      <point x="1344" y="982"/>
      <point x="1158" y="1184"/>
      <point x="901" y="1184" type="curve" smooth="yes"/>
      <point x="690" y="1184"/>
      <point x="500" y="1090"/>
      <point x="362" y="852" type="curve"/>
      <point x="362" y="624" type="line"/>
      <point x="542" y="872"/>
      <point x="648" y="928"/>
      <point x="760" y="928" type="curve" smooth="yes"/>
      <point x="861" y="928"/>
      <point x="932" y="852"/>
      <point x="932" y="585" type="curve" smooth="yes"/>
      <point x="932" y="303"/>
      <point x="816" y="232"/>
      <point x="724" y="232" type="curve" smooth="yes"/>
      <point x="601" y="232"/>
      <point x="476" y="363"/>
      <point x="392" y="515" type="curve"/>
      <point x="328" y="341" type="line"/>
    </contour>
    <component base="lc_ascender_stem_2" xOffset="2"/>
  </outline>
</glyph>
<glyph name="c" format="1">
  <advance width="1127"/>
  <unicode hex="0063"/>
  <outline>
    <contour>
      <point x="82" y="188"/>
      <point x="379" y="-20"/>
      <point x="694" y="-20" type="curve" smooth="yes"/>
      <point x="825" y="-20"/>
      <point x="958" y="14"/>
      <point x="1075" y="88" type="curve"/>
      <point x="967" y="314" type="line"/>
      <point x="900" y="279"/>
      <point x="832" y="260"/>
      <point x="769" y="260" type="curve" smooth="yes"/>
      <point x="618" y="260"/>
      <point x="500" y="366"/>
      <point x="500" y="588" type="curve"/>
      <point x="500" y="805"/>
      <point x="625" y="904"/>
      <point x="772" y="904" type="curve" smooth="yes"/>
      <point x="839" y="904"/>
      <point x="911" y="883"/>
      <point x="977" y="844" type="curve"/>
      <point x="1075" y="1088" type="line"/>
      <point x="958" y="1162"/>
      <point x="825" y="1184"/>
      <point x="694" y="1184" type="curve" smooth="yes"/>
      <point x="379" y="1184"/>
      <point x="82" y="988"/>
      <point x="82" y="588" type="curve"/>
    </contour>
  </outline>
</glyph>
<glyph name="d" format="1">
  <advance width="1410"/>
  <unicode hex="0064"/>
  <outline>
    <contour>
      <point x="575" y="-20" type="curve" smooth="yes"/>
      <point x="836" y="-20"/>
      <point x="1023" y="196"/>
      <point x="1098" y="341" type="curve"/>
      <point x="1034" y="515" type="line"/>
      <point x="950" y="363"/>
      <point x="825" y="232"/>
      <point x="702" y="232" type="curve" smooth="yes"/>
      <point x="610" y="232"/>
      <point x="494" y="303"/>
      <point x="494" y="585" type="curve" smooth="yes"/>
      <point x="494" y="852"/>
      <point x="565" y="928"/>
      <point x="666" y="928" type="curve" smooth="yes"/>
      <point x="778" y="928"/>
      <point x="884" y="872"/>
      <point x="1064" y="624" type="curve"/>
      <point x="1064" y="852" type="line"/>
      <point x="926" y="1090"/>
      <point x="736" y="1184"/>
      <point x="525" y="1184" type="curve" smooth="yes"/>
      <point x="268" y="1184"/>
      <point x="82" y="982"/>
      <point x="82" y="588" type="curve" smooth="yes"/>
      <point x="82" y="166"/>
      <point x="329" y="-20"/>
    </contour>
    <component base="lc_ascender_stem_3" xOffset="-4"/>
  </outline>
</glyph>
<glyph name="e" format="1">
  <advance width="1256"/>
  <unicode hex="0065"/>
  <outline>
    <contour>
      <point x="720" y="-20" type="curve" smooth="yes"/>
      <point x="863" y="-20"/>
      <point x="1018" y="10"/>
      <point x="1155" y="97" type="curve"/>
      <point x="1056" y="342" type="line"/>
      <point x="964" y="294"/>
      <point x="877" y="260"/>
      <point x="770" y="260" type="curve" smooth="yes"/>
      <point x="648" y="260"/>
      <point x="513" y="303"/>
      <point x="500" y="478" type="curve"/>
      <point x="1155" y="478" type="line"/>
      <point x="1163" y="595" type="line" smooth="yes"/>
      <point x="1189" y="975"/>
      <point x="998" y="1184"/>
      <point x="693" y="1184" type="curve" smooth="yes"/>
      <point x="326" y="1184"/>
      <point x="82" y="959"/>
      <point x="82" y="573" type="curve" smooth="yes"/>
      <point x="82" y="199"/>
      <point x="309" y="-20"/>
    </contour>
    <contour>
      <point x="825" y="705" type="line"/>
      <point x="505" y="705" type="line"/>
      <point x="505" y="850"/>
      <point x="576" y="925"/>
      <point x="681" y="925" type="curve" smooth="yes"/>
      <point x="759" y="925"/>
      <point x="825" y="862"/>
      <point x="825" y="733" type="curve" smooth="yes"/>
    </contour>
  </outline>
</glyph>
<glyph name="f" format="1">
  <advance width="934"/>
  <unicode hex="0066"/>
  <outline>
    <contour>
      <point x="617" y="0" type="line"/>
      <point x="617" y="945" type="line"/>
      <point x="931" y="945" type="line"/>
      <point x="931" y="1162" type="line"/>
      <point x="617" y="1162" type="line"/>
      <point x="617" y="1226" type="line" smooth="yes"/>
      <point x="617" y="1350"/>
      <point x="695" y="1371"/>
      <point x="750" y="1371" type="curve" smooth="yes"/>
      <point x="805" y="1371"/>
      <point x="861" y="1355"/>
      <point x="917" y="1334" type="curve"/>
      <point x="980" y="1591" type="line"/>
      <point x="907" y="1638"/>
      <point x="783" y="1672"/>
      <point x="637" y="1672" type="curve" smooth="yes"/>
      <point x="446" y="1672"/>
      <point x="205" y="1587"/>
      <point x="205" y="1181" type="curve" smooth="yes"/>
      <point x="205" y="1162" type="line"/>
      <point x="14" y="1162" type="line"/>
      <point x="14" y="945" type="line"/>
      <point x="205" y="945" type="line"/>
      <point x="205" y="0" type="line"/>
    </contour>
  </outline>
</glyph>
<glyph name="g" format="1">
  <advance width="1273"/>
  <unicode hex="0067"/>
  <outline>
    <contour>
      <point x="517" y="-555" type="curve" smooth="yes"/>
      <point x="836" y="-569"/>
      <point x="1215" y="-527"/>
      <point x="1215" y="-168" type="curve" smooth="yes"/>
      <point x="1215" y="166"/>
      <point x="1048" y="239"/>
      <point x="821" y="239" type="curve" smooth="yes"/>
      <point x="505" y="239" type="line"/>
      <point x="505" y="239"/>
      <point x="488" y="264"/>
      <point x="488" y="305" type="curve" smooth="yes"/>
      <point x="488" y="340"/>
      <point x="512" y="369"/>
      <point x="512" y="369" type="curve" smooth="yes"/>
      <point x="512" y="369"/>
      <point x="576" y="363"/>
      <point x="622" y="363" type="curve" smooth="yes"/>
      <point x="941" y="363"/>
      <point x="1099" y="517"/>
      <point x="1099" y="772" type="curve"/>
      <point x="1099" y="863"/>
      <point x="1066" y="925"/>
      <point x="1044" y="951" type="curve"/>
      <point x="1264" y="966" type="line"/>
      <point x="1264" y="1192" type="line"/>
      <point x="1118" y="1192"/>
      <point x="1033" y="1177"/>
      <point x="895" y="1119" type="curve"/>
      <point x="809" y="1159"/>
      <point x="784" y="1184"/>
      <point x="596" y="1184" type="curve" smooth="yes"/>
      <point x="269" y="1184"/>
      <point x="113" y="1023"/>
      <point x="112" y="766" type="curve" smooth="yes"/>
      <point x="111" y="581"/>
      <point x="207" y="511"/>
      <point x="288" y="466" type="curve"/>
      <point x="290" y="464"/>
      <point x="155" y="340"/>
      <point x="155" y="185" type="curve" smooth="yes"/>
      <point x="155" y="98"/>
      <point x="240" y="38"/>
      <point x="282" y="22" type="curve"/>
      <point x="208" y="-17"/>
      <point x="98" y="-98"/>
      <point x="98" y="-213" type="curve" smooth="yes"/>
      <point x="98" y="-466"/>
      <point x="262" y="-544"/>
    </contour>
    <contour>
      <point x="583" y="-301" type="curve" smooth="yes"/>
      <point x="397" y="-301"/>
      <point x="383" y="-230"/>
      <point x="383" y="-155" type="curve" smooth="yes"/>
      <point x="383" y="-96"/>
      <point x="410" y="-47"/>
      <point x="432" y="-20" type="curve"/>
      <point x="687" y="-20" type="line" smooth="yes"/>
      <point x="828" y="-20"/>
      <point x="870" y="-40"/>
      <point x="870" y="-130" type="curve" smooth="yes"/>
      <point x="870" y="-317"/>
      <point x="687" y="-301"/>
    </contour>
    <contour>
      <point x="616" y="607" type="curve"/>
      <point x="496" y="607"/>
      <point x="429" y="654"/>
      <point x="429" y="776" type="curve" smooth="yes"/>
      <point x="429" y="905"/>
      <point x="496" y="957"/>
      <point x="630" y="957" type="curve" smooth="yes"/>
      <point x="761" y="957"/>
      <point x="816" y="893"/>
      <point x="816" y="777" type="curve"/>
      <point x="816" y="656"/>
      <point x="746" y="603"/>
    </contour>
  </outline>
</glyph>
<glyph name="h" format="1">
  <advance width="1407"/>
  <unicode hex="0068"/>
  <outline>
    <contour>
      <point x="1273" y="0" type="line"/>
      <point x="1273" y="753" type="line" smooth="yes"/>
      <point x="1273" y="1140"/>
      <point x="1044" y="1184"/>
      <point x="897" y="1184" type="curve" smooth="yes"/>
      <point x="624" y="1184"/>
      <point x="392" y="976"/>
      <point x="318" y="785" type="curve"/>
      <point x="318" y="785"/>
      <point x="381" y="563"/>
      <point x="381" y="563" type="curve"/>
      <point x="494" y="795"/>
      <point x="638" y="904"/>
      <point x="739" y="904" type="curve" smooth="yes"/>
      <point x="815" y="904"/>
      <point x="861" y="878"/>
      <point x="861" y="732" type="curve" smooth="yes"/>
      <point x="861" y="0" type="line"/>
    </contour>
    <component base="lc_ascender_stem" xOffset="-7"/>
  </outline>
</glyph>
<glyph name="i" format="1">
  <advance width="723"/>
  <unicode hex="0069"/>
  <outline>
    <contour>
      <point x="366" y="1335" type="curve" smooth="yes"/>
      <point x="493" y="1335"/>
      <point x="597" y="1431"/>
      <point x="597" y="1559" type="curve" smooth="yes"/>
      <point x="597" y="1686"/>
      <point x="491" y="1784"/>
      <point x="366" y="1784" type="curve" smooth="yes"/>
      <point x="240" y="1784"/>
      <point x="142" y="1686"/>
      <point x="142" y="1559" type="curve" smooth="yes"/>
      <point x="142" y="1436"/>
      <point x="236" y="1335"/>
    </contour>
    <contour>
      <point x="573" y="0" type="line"/>
      <point x="573" y="1162" type="line"/>
      <point x="161" y="1162" type="line"/>
      <point x="161" y="0" type="line"/>
    </contour>
  </outline>
</glyph>
<glyph name="j" format="1">
  <advance width="782"/>
  <unicode hex="006A"/>
  <outline>
    <contour>
      <point x="85" y="-499" type="line"/>
      <point x="400" y="-423"/>
      <point x="578" y="-315"/>
      <point x="578" y="0" type="curve" smooth="yes"/>
      <point x="578" y="0"/>
      <point x="166" y="141"/>
      <point x="166" y="141" type="curve" smooth="yes"/>
      <point x="166" y="-91"/>
      <point x="166" y="-126"/>
      <point x="-51" y="-217" type="curve"/>
    </contour>
    <component base="i"/>
  </outline>
</glyph>
<glyph name="k" format="1">
  <advance width="1383"/>
  <unicode hex="006B"/>
  <outline>
    <contour>
      <point x="1414" y="0" type="line"/>
      <point x="932" y="668" type="line"/>
      <point x="1385" y="1162" type="line"/>
      <point x="914" y="1162" type="line"/>
      <point x="375" y="531" type="line"/>
      <point x="375" y="531"/>
      <point x="375" y="241"/>
      <point x="375" y="241" type="curve"/>
      <point x="647" y="489" type="line"/>
      <point x="950" y="0" type="line"/>
    </contour>
    <component base="lc_ascender_stem"/>
  </outline>
</glyph>
<glyph name="m" format="1">
  <advance width="2091"/>
  <unicode hex="006D"/>
  <outline>
    <contour>
      <point x="1077" y="459" type="curve"/>
      <point x="1180" y="761"/>
      <point x="1267" y="916"/>
      <point x="1418" y="915" type="curve" smooth="yes"/>
      <point x="1494" y="914"/>
      <point x="1545" y="888"/>
      <point x="1545" y="742" type="curve" smooth="yes"/>
      <point x="1545" y="0" type="line"/>
      <point x="1957" y="0" type="line"/>
      <point x="1957" y="740" type="line" smooth="yes"/>
      <point x="1957" y="1127"/>
      <point x="1723" y="1184"/>
      <point x="1576" y="1184" type="curve" smooth="yes"/>
      <point x="1303" y="1184"/>
      <point x="1088" y="956"/>
      <point x="1014" y="705" type="curve"/>
      <point x="1014" y="705"/>
      <point x="1027" y="653"/>
      <point x="1042" y="597" type="curve" smooth="yes"/>
      <point x="1059" y="531"/>
      <point x="1077" y="459"/>
    </contour>
    <contour>
      <point x="379" y="459" type="curve"/>
      <point x="472" y="721"/>
      <point x="583" y="916"/>
      <point x="720" y="915" type="curve" smooth="yes"/>
      <point x="796" y="914"/>
      <point x="847" y="888"/>
      <point x="847" y="742" type="curve" smooth="yes"/>
      <point x="847" y="0" type="line"/>
      <point x="1259" y="0" type="line"/>
      <point x="1259" y="740" type="line" smooth="yes"/>
      <point x="1259" y="1127"/>
      <point x="1025" y="1184"/>
      <point x="878" y="1184" type="curve" smooth="yes"/>
      <point x="605" y="1184"/>
      <point x="390" y="936"/>
      <point x="316" y="705" type="curve"/>
      <point x="316" y="705"/>
      <point x="379" y="459"/>
    </contour>
    <component base="lc_main_stem"/>
  </outline>
</glyph>
<glyph name="n" format="1">
  <advance width="1406"/>
  <unicode hex="006E"/>
  <outline>
    <contour>
      <point x="1275" y="0" type="line"/>
      <point x="1275" y="753" type="line" smooth="yes"/>
      <point x="1275" y="1140"/>
      <point x="1046" y="1184"/>
      <point x="899" y="1184" type="curve" smooth="yes"/>
      <point x="626" y="1184"/>
      <point x="394" y="999"/>
      <point x="320" y="785" type="curve"/>
      <point x="320" y="785"/>
      <point x="383" y="563"/>
      <point x="383" y="563" type="curve"/>
      <point x="506" y="825"/>
      <point x="640" y="904"/>
      <point x="741" y="904" type="curve" smooth="yes"/>
      <point x="817" y="904"/>
      <point x="863" y="878"/>
      <point x="863" y="732" type="curve" smooth="yes"/>
      <point x="863" y="0" type="line"/>
    </contour>
    <component base="lc_main_stem" xOffset="2"/>
  </outline>
</glyph>
<glyph name="o" format="1">
  <advance width="1350"/>
  <unicode hex="006F"/>
  <outline>
    <contour>
      <point x="675" y="-20" type="curve"/>
      <point x="1035" y="-20"/>
      <point x="1268" y="190"/>
      <point x="1268" y="582" type="curve" smooth="yes"/>
      <point x="1268" y="982"/>
      <point x="1029" y="1184"/>
      <point x="675" y="1184" type="curve"/>
      <point x="321" y="1184"/>
      <point x="82" y="982"/>
      <point x="82" y="582" type="curve" smooth="yes"/>
      <point x="82" y="190"/>
      <point x="315" y="-20"/>
    </contour>
    <contour>
      <point x="675" y="260" type="curve"/>
      <point x="556" y="260"/>
      <point x="497" y="374"/>
      <point x="497" y="584" type="curve" smooth="yes"/>
      <point x="497" y="795"/>
      <point x="556" y="904"/>
      <point x="675" y="904" type="curve"/>
      <point x="794" y="904"/>
      <point x="854" y="795"/>
      <point x="854" y="584" type="curve" smooth="yes"/>
      <point x="854" y="374"/>
      <point x="794" y="260"/>
    </contour>
  </outline>
</glyph>
<glyph name="p" format="1">
  <advance width="1389"/>
  <unicode hex="0070"/>
  <outline>
    <contour>
      <point x="814" y="-20" type="curve" smooth="yes"/>
      <point x="1060" y="-20"/>
      <point x="1307" y="166"/>
      <point x="1307" y="588" type="curve" smooth="yes"/>
      <point x="1307" y="982"/>
      <point x="1121" y="1184"/>
      <point x="864" y="1184" type="curve" smooth="yes"/>
      <point x="653" y="1184"/>
      <point x="463" y="1090"/>
      <point x="325" y="852" type="curve"/>
      <point x="325" y="624" type="line"/>
      <point x="505" y="872"/>
      <point x="611" y="928"/>
      <point x="723" y="928" type="curve" smooth="yes"/>
      <point x="824" y="928"/>
      <point x="895" y="852"/>
      <point x="895" y="585" type="curve" smooth="yes"/>
      <point x="895" y="303"/>
      <point x="779" y="232"/>
      <point x="687" y="232" type="curve" smooth="yes"/>
      <point x="564" y="232"/>
      <point x="439" y="363"/>
      <point x="355" y="515" type="curve"/>
      <point x="291" y="341" type="line"/>
      <point x="366" y="196"/>
      <point x="553" y="-20"/>
    </contour>
    <component base="lc_descender_stem" xOffset="-44"/>
  </outline>
</glyph>
<glyph name="q" format="1">
  <advance width="1367"/>
  <unicode hex="0071"/>
  <outline>
    <contour>
      <point x="797" y="-369" type="line"/>
      <point x="1211" y="-378" type="line"/>
      <point x="1211" y="1162" type="line"/>
      <point x="848" y="1162" type="line"/>
      <point x="795" y="1015" type="line"/>
      <point x="732" y="1180"/>
      <point x="654" y="1198"/>
      <point x="559" y="1198" type="curve" smooth="yes"/>
      <point x="238" y="1198"/>
      <point x="69" y="999"/>
      <point x="69" y="558" type="curve" smooth="yes"/>
      <point x="69" y="256"/>
      <point x="208" y="-28"/>
      <point x="556" y="-28" type="curve" smooth="yes"/>
      <point x="640" y="-28"/>
      <point x="715" y="15"/>
      <point x="797" y="109" type="curve"/>
    </contour>
    <contour>
      <point x="600" y="245" type="curve" smooth="yes"/>
      <point x="449" y="245"/>
      <point x="482" y="499"/>
      <point x="482" y="606" type="curve" smooth="yes"/>
      <point x="482" y="785"/>
      <point x="517" y="926"/>
      <point x="658" y="926" type="curve" smooth="yes"/>
      <point x="733" y="926"/>
      <point x="741" y="917"/>
      <point x="797" y="808" type="curve"/>
      <point x="797" y="347" type="line"/>
      <point x="719" y="273"/>
      <point x="666" y="245"/>
    </contour>
  </outline>
</glyph>
<glyph name="r" format="1">
  <advance width="958"/>
  <unicode hex="0072"/>
  <outline>
    <contour>
      <point x="361" y="584" type="line"/>
      <point x="451" y="709"/>
      <point x="729" y="836"/>
      <point x="938" y="836" type="curve"/>
      <point x="896" y="1173" type="line"/>
      <point x="606" y="1173"/>
      <point x="408" y="852"/>
      <point x="354" y="681" type="curve"/>
    </contour>
    <component base="lc_main_stem" xOffset="6"/>
  </outline>
</glyph>
<glyph name="s" format="1">
  <advance width="1101"/>
  <unicode hex="0073"/>
  <outline>
    <contour>
      <point x="565" y="-20" type="curve" smooth="yes"/>
      <point x="830" y="-20"/>
      <point x="1018" y="85"/>
      <point x="1029" y="333" type="curve" smooth="yes"/>
      <point x="1035" y="467"/>
      <point x="1007" y="574"/>
      <point x="724" y="687" type="curve" smooth="yes"/>
      <point x="532" y="764" type="line" smooth="yes"/>
      <point x="482" y="784"/>
      <point x="475" y="811"/>
      <point x="479" y="839" type="curve" smooth="yes"/>
      <point x="486" y="887"/>
      <point x="528" y="902"/>
      <point x="605" y="902" type="curve" smooth="yes"/>
      <point x="692" y="902"/>
      <point x="798" y="874"/>
      <point x="921" y="817" type="curve"/>
      <point x="1011" y="1061" type="line"/>
      <point x="940" y="1108"/>
      <point x="783" y="1184"/>
      <point x="578" y="1184" type="curve" smooth="yes"/>
      <point x="232" y="1184"/>
      <point x="79" y="1014"/>
      <point x="79" y="828" type="curve" smooth="yes"/>
      <point x="79" y="681"/>
      <point x="142" y="572"/>
      <point x="344" y="491" type="curve" smooth="yes"/>
      <point x="580" y="396" type="line" smooth="yes"/>
      <point x="624" y="378"/>
      <point x="632" y="352"/>
      <point x="632" y="331" type="curve" smooth="yes"/>
      <point x="632" y="282"/>
      <point x="599" y="250"/>
      <point x="509" y="250" type="curve" smooth="yes"/>
      <point x="399" y="250"/>
      <point x="270" y="300"/>
      <point x="164" y="363" type="curve"/>
      <point x="80" y="103" type="line"/>
      <point x="188" y="42"/>
      <point x="343" y="-20"/>
    </contour>
  </outline>
</glyph>
<glyph name="t" format="1">
  <advance width="1026"/>
  <unicode hex="0074"/>
  <outline>
    <contour>
      <point x="639" y="-15" type="curve" smooth="yes"/>
      <point x="785" y="-15"/>
      <point x="909" y="19"/>
      <point x="982" y="66" type="curve"/>
      <point x="919" y="323" type="line"/>
      <point x="863" y="302"/>
      <point x="807" y="286"/>
      <point x="752" y="286" type="curve" smooth="yes"/>
      <point x="697" y="286"/>
      <point x="619" y="302"/>
      <point x="619" y="426" type="curve" smooth="yes"/>
      <point x="619" y="945" type="line"/>
      <point x="933" y="945" type="line"/>
      <point x="933" y="1162" type="line"/>
      <point x="619" y="1162" type="line"/>
      <point x="619" y="1612" type="line"/>
      <point x="246" y="1526" type="line"/>
      <point x="222" y="1162" type="line"/>
      <point x="16" y="1162" type="line"/>
      <point x="16" y="945" type="line"/>
      <point x="208" y="945" type="line"/>
      <point x="208" y="460" type="line" smooth="yes"/>
      <point x="208" y="54"/>
      <point x="448" y="-15"/>
    </contour>
  </outline>
</glyph>
<glyph name="u" format="1">
  <advance width="1427"/>
  <unicode hex="0075"/>
  <outline>
    <contour>
      <point x="1283" y="0" type="line"/>
      <point x="1283" y="1162" type="line"/>
      <point x="871" y="1162" type="line"/>
      <point x="871" y="330" type="line"/>
      <point x="841" y="287"/>
      <point x="774" y="234"/>
      <point x="684" y="234" type="curve" smooth="yes"/>
      <point x="614" y="234"/>
      <point x="546" y="271"/>
      <point x="546" y="382" type="curve" smooth="yes"/>
      <point x="546" y="1162" type="line"/>
      <point x="134" y="1162" type="line"/>
      <point x="134" y="452" type="line" smooth="yes"/>
      <point x="134" y="78"/>
      <point x="329" y="-20"/>
      <point x="552" y="-20" type="curve" smooth="yes"/>
      <point x="762" y="-20"/>
      <point x="862" y="69"/>
      <point x="925" y="129" type="curve"/>
      <point x="968" y="0" type="line"/>
    </contour>
  </outline>
</glyph>
<glyph name="w" format="1">
  <advance width="1657"/>
  <unicode hex="0077"/>
  <outline>
    <contour>
      <point x="727" y="0" type="line"/>
      <point x="827" y="585" type="line"/>
      <point x="932" y="0" type="line"/>
      <point x="1346" y="0" type="line"/>
      <point x="1627" y="1162" type="line"/>
      <point x="1253" y="1162" type="line"/>
      <point x="1118" y="434" type="line"/>
      <point x="1007" y="1162" type="line"/>
      <point x="660" y="1162" type="line"/>
      <point x="544" y="444" type="line"/>
      <point x="414" y="1162" type="line"/>
      <point x="31" y="1162" type="line"/>
      <point x="318" y="0" type="line"/>
    </contour>
  </outline>
</glyph>
<glyph name="x" format="1">
  <advance width="1251"/>
  <unicode hex="0078"/>
  <outline>
    <contour>
      <point x="779" y="0" type="line"/>
      <point x="1235" y="0" type="line"/>
      <point x="844" y="584" type="line"/>
      <point x="1240" y="1162" type="line"/>
      <point x="776" y="1162" type="line"/>
      <point x="634" y="880" type="line"/>
      <point x="484" y="1162" type="line"/>
      <point x="11" y="1162" type="line"/>
      <point x="418" y="584" type="line"/>
      <point x="20" y="0" type="line"/>
      <point x="482" y="0" type="line"/>
      <point x="626" y="299" type="line"/>
    </contour>
  </outline>
</glyph>
<glyph name="y" format="1">
  <advance width="1273"/>
  <unicode hex="0079"/>
  <outline>
    <contour>
      <point x="303" y="-569" type="line"/>
      <point x="633" y="-569"/>
      <point x="763" y="-353"/>
      <point x="866" y="-30" type="curve" smooth="yes"/>
      <point x="1246" y="1162" type="line"/>
      <point x="830" y="1162" type="line"/>
      <point x="681" y="434" type="line"/>
      <point x="435" y="1162" type="line"/>
      <point x="9" y="1162" type="line"/>
      <point x="503" y="51" type="line"/>
      <point x="459" y="-125"/>
      <point x="445" y="-273"/>
      <point x="185" y="-294" type="curve"/>
    </contour>
  </outline>
</glyph>
<glyph name="z" format="1">
  <advance width="1061"/>
  <unicode hex="007A"/>
  <outline>
    <contour>
      <point x="94" y="0" type="line"/>
      <point x="988" y="0" type="line"/>
      <point x="988" y="310" type="line"/>
      <point x="557" y="310" type="line"/>
      <point x="973" y="906" type="line"/>
      <point x="973" y="1162" type="line"/>
      <point x="99" y="1162" type="line"/>
      <point x="99" y="849" type="line"/>
      <point x="515" y="849" type="line"/>
      <point x="94" y="259" type="line"/>
    </contour>
  </outline>
</glyph>
<glyph name="bar" format="1">
  <advance width="959"/>
  <unicode hex="007C"/>
  <outline>
    <contour>
      <point x="300" y="-161" type="line"/>
      <point x="658" y="-161" type="line"/>
      <point x="658" y="1656" type="line"/>
      <point x="300" y="1656" type="line"/>
    </contour>
  </outline>
</glyph>
<glyph name="exclamdown" format="1">
  <advance width="940"/>
  <unicode hex="00A1"/>
  <outline>
    <contour>
      <point x="200" y="-1" type="line"/>
      <point x="727" y="-1" type="line"/>
      <point x="578" y="1020" type="line"/>
      <point x="354" y="1020" type="line"/>
    </contour>
    <contour>
      <point x="534" y="1060" type="curve" smooth="yes"/>
      <point x="688" y="1060"/>
      <point x="717" y="1178"/>
      <point x="717" y="1329" type="curve" smooth="yes"/>
      <point x="717" y="1479"/>
      <point x="606" y="1520"/>
      <point x="453" y="1520" type="curve" smooth="yes"/>
      <point x="300" y="1520"/>
      <point x="273" y="1401"/>
      <point x="273" y="1251" type="curve" smooth="yes"/>
      <point x="273" y="1099"/>
      <point x="381" y="1060"/>
    </contour>
  </outline>
</glyph>
<glyph name="yen" format="1">
  <advance width="1361"/>
  <unicode hex="00A5"/>
  <outline>
    <contour>
      <point x="471" y="0" type="line"/>
      <point x="880" y="0" type="line"/>
      <point x="880" y="407" type="line"/>
      <point x="1215" y="407" type="line"/>
      <point x="1215" y="535" type="line"/>
      <point x="883" y="535" type="line"/>
      <point x="969" y="677" type="line"/>
      <point x="1215" y="677" type="line"/>
      <point x="1215" y="803" type="line"/>
      <point x="1037" y="803" type="line"/>
      <point x="1389" y="1576" type="line"/>
      <point x="931" y="1576" type="line"/>
      <point x="677" y="820" type="line"/>
      <point x="424" y="1576" type="line"/>
      <point x="-25" y="1576" type="line"/>
      <point x="320" y="803" type="line"/>
      <point x="138" y="803" type="line"/>
      <point x="138" y="677" type="line"/>
      <point x="384" y="677" type="line"/>
      <point x="468" y="535" type="line"/>
      <point x="138" y="535" type="line"/>
      <point x="138" y="407" type="line"/>
      <point x="471" y="407" type="line"/>
    </contour>
  </outline>
</glyph>
<glyph name="brokenbar" format="1">
  <advance width="878"/>
  <unicode hex="00A6"/>
  <outline>
    <contour>
      <point x="265" y="-204" type="line"/>
      <point x="621" y="-204" type="line"/>
      <point x="621" y="564" type="line"/>
      <point x="265" y="564" type="line"/>
    </contour>
    <contour>
      <point x="265" y="933" type="line"/>
      <point x="621" y="933" type="line"/>
      <point x="621" y="1701" type="line"/>
      <point x="265" y="1701" type="line"/>
    </contour>
  </outline>
</glyph>
<glyph name="section" format="1">
  <advance width="1200"/>
  <unicode hex="00A7"/>
  <outline>
    <contour>
      <point x="563" y="-115" type="curve" smooth="yes"/>
      <point x="780" y="-115"/>
      <point x="1049" y="-70"/>
      <point x="1049" y="229" type="curve" smooth="yes"/>
      <point x="1049" y="307"/>
      <point x="1030" y="435"/>
      <point x="889" y="500" type="curve"/>
      <point x="1006" y="546"/>
      <point x="1047" y="646"/>
      <point x="1047" y="742" type="curve" smooth="yes"/>
      <point x="1047" y="865"/>
      <point x="1054" y="969"/>
      <point x="679" y="1104" type="curve" smooth="yes"/>
      <point x="688" y="1101"/>
      <point x="480" y="1176"/>
      <point x="489" y="1173" type="curve" smooth="yes"/>
      <point x="386" y="1212"/>
      <point x="415" y="1227"/>
      <point x="415" y="1221" type="curve" smooth="yes"/>
      <point x="415" y="1220"/>
      <point x="364" y="1307"/>
      <point x="577" y="1307" type="curve" smooth="yes"/>
      <point x="663" y="1307"/>
      <point x="849" y="1231"/>
      <point x="908" y="1183" type="curve"/>
      <point x="1014" y="1412" type="line"/>
      <point x="970" y="1439"/>
      <point x="831" y="1581"/>
      <point x="566" y="1581" type="curve" smooth="yes"/>
      <point x="194" y="1581"/>
      <point x="119" y="1383"/>
      <point x="119" y="1270" type="curve" smooth="yes"/>
      <point x="119" y="1150"/>
      <point x="163" y="1050"/>
      <point x="283" y="1009" type="curve"/>
      <point x="132" y="961"/>
      <point x="119" y="820"/>
      <point x="119" y="767" type="curve" smooth="yes"/>
      <point x="119" y="622"/>
      <point x="135" y="535"/>
      <point x="435" y="433" type="curve" smooth="yes"/>
      <point x="425" y="436"/>
      <point x="637" y="364"/>
      <point x="627" y="367" type="curve"/>
      <point x="729" y="335"/>
      <point x="740" y="312"/>
      <point x="740" y="260" type="curve" smooth="yes"/>
      <point x="740" y="203"/>
      <point x="699" y="158"/>
      <point x="551" y="158" type="curve" smooth="yes"/>
      <point x="390" y="158"/>
      <point x="294" y="233"/>
      <point x="221" y="297" type="curve"/>
      <point x="113" y="52" type="line"/>
      <point x="199" y="-24"/>
      <point x="388" y="-115"/>
    </contour>
    <contour>
      <point x="578" y="667" type="curve" smooth="yes"/>
      <point x="436" y="667"/>
      <point x="413" y="705"/>
      <point x="413" y="749" type="curve" smooth="yes"/>
      <point x="413" y="765"/>
      <point x="387" y="831"/>
      <point x="579" y="831" type="curve" smooth="yes"/>
      <point x="755" y="831"/>
      <point x="747" y="775"/>
      <point x="747" y="747" type="curve" smooth="yes"/>
      <point x="747" y="703"/>
      <point x="714" y="667"/>
    </contour>
  </outline>
</glyph>
<glyph name="copyright" format="1">
  <advance width="2182"/>
  <unicode hex="00A9"/>
  <outline>
    <contour>
      <point x="1148" y="244" type="curve" smooth="yes"/>
      <point x="1229" y="244"/>
      <point x="1338" y="283"/>
      <point x="1434" y="331" type="curve"/>
      <point x="1434" y="571" type="line"/>
      <point x="1366" y="513"/>
      <point x="1254" y="463"/>
      <point x="1155" y="463" type="curve" smooth="yes"/>
      <point x="1072" y="463"/>
      <point x="944" y="530"/>
      <point x="944" y="766" type="curve" smooth="yes"/>
      <point x="944" y="975"/>
      <point x="1060" y="1064"/>
      <point x="1157" y="1064" type="curve" smooth="yes"/>
      <point x="1234" y="1064"/>
      <point x="1329" y="1029"/>
      <point x="1423" y="962" type="curve"/>
      <point x="1423" y="1205" type="line"/>
      <point x="1378" y="1237"/>
      <point x="1239" y="1285"/>
      <point x="1126" y="1287" type="curve"/>
      <point x="853" y="1287"/>
      <point x="679" y="1068"/>
      <point x="679" y="780" type="curve" smooth="yes"/>
      <point x="679" y="568"/>
      <point x="751" y="244"/>
    </contour>
    <contour>
      <point x="1126" y="-176" type="curve" smooth="yes"/>
      <point x="1828" y="-176"/>
      <point x="2096" y="518"/>
      <point x="2096" y="709" type="curve" smooth="yes"/>
      <point x="2096" y="1153"/>
      <point x="1970" y="1709"/>
      <point x="1118" y="1709" type="curve" smooth="yes"/>
      <point x="663" y="1709"/>
      <point x="174" y="1350"/>
      <point x="174" y="769" type="curve" smooth="yes"/>
      <point x="174" y="198"/>
      <point x="627" y="-176"/>
    </contour>
    <contour>
      <point x="1138" y="101" type="curve" smooth="yes"/>
      <point x="732" y="101"/>
      <point x="472" y="402"/>
      <point x="472" y="765" type="curve" smooth="yes"/>
      <point x="472" y="1202"/>
      <point x="821" y="1432"/>
      <point x="1111" y="1432" type="curve" smooth="yes"/>
      <point x="1659" y="1432"/>
      <point x="1798" y="996"/>
      <point x="1798" y="774" type="curve" smooth="yes"/>
      <point x="1798" y="411"/>
      <point x="1526" y="101"/>
    </contour>
  </outline>
</glyph>
<glyph name="guillemotleft" format="1">
  <advance width="2068"/>
  <unicode hex="00AB"/>
  <outline>
    <contour>
      <point x="1013" y="-109" type="line"/>
      <point x="1013" y="277" type="line"/>
      <point x="527" y="580" type="line"/>
      <point x="1013" y="870" type="line"/>
      <point x="1013" y="1258" type="line"/>
      <point x="130" y="708" type="line"/>
      <point x="130" y="442" type="line"/>
    </contour>
    <contour>
      <point x="1893" y="-109" type="line"/>
      <point x="1893" y="277" type="line"/>
      <point x="1407" y="580" type="line"/>
      <point x="1893" y="870" type="line"/>
      <point x="1893" y="1258" type="line"/>
      <point x="1010" y="708" type="line"/>
      <point x="1010" y="442" type="line"/>
    </contour>
  </outline>
</glyph>
<glyph name="registered" format="1">
  <advance width="1418"/>
  <unicode hex="00AE"/>
  <outline>
    <contour>
      <point x="861" y="576" type="line"/>
      <point x="849" y="569"/>
      <point x="1013" y="648"/>
      <point x="1000" y="643" type="curve"/>
      <point x="812" y="907" type="line"/>
      <point x="945" y="945"/>
      <point x="976" y="1001"/>
      <point x="976" y="1100" type="curve" smooth="yes"/>
      <point x="976" y="1247"/>
      <point x="861" y="1299"/>
      <point x="637" y="1299" type="curve" smooth="yes"/>
      <point x="495" y="1299" type="line"/>
      <point x="495" y="603" type="line"/>
      <point x="637" y="603" type="line"/>
      <point x="637" y="880" type="line"/>
      <point x="675" y="880" type="line"/>
    </contour>
    <contour>
      <point x="714" y="415" type="curve" smooth="yes"/>
      <point x="397" y="415"/>
      <point x="169" y="648"/>
      <point x="169" y="942" type="curve" smooth="yes"/>
      <point x="169" y="1238"/>
      <point x="399" y="1472"/>
      <point x="714" y="1472" type="curve" smooth="yes"/>
      <point x="1032" y="1472"/>
      <point x="1261" y="1236"/>
      <point x="1261" y="943" type="curve" smooth="yes"/>
      <point x="1261" y="654"/>
      <point x="1034" y="415"/>
    </contour>
    <contour>
      <point x="715" y="265" type="curve" smooth="yes"/>
      <point x="1133" y="265"/>
      <point x="1423" y="587"/>
      <point x="1423" y="945" type="curve" smooth="yes"/>
      <point x="1423" y="1329"/>
      <point x="1106" y="1624"/>
      <point x="715" y="1624" type="curve" smooth="yes"/>
      <point x="290" y="1624"/>
      <point x="10" y="1297"/>
      <point x="10" y="945" type="curve" smooth="yes"/>
      <point x="10" y="565"/>
      <point x="319" y="265"/>
    </contour>
    <contour>
      <point x="643" y="1003" type="line"/>
      <point x="643" y="1179" type="line"/>
      <point x="842" y="1179"/>
      <point x="832" y="1150"/>
      <point x="832" y="1095" type="curve" smooth="yes"/>
      <point x="832" y="1030"/>
      <point x="796" y="1003"/>
      <point x="692" y="1003" type="curve" smooth="yes"/>
    </contour>
  </outline>
</glyph>
<glyph name="macron" format="1">
  <advance width="590"/>
  <unicode hex="00AF"/>
  <outline>
    <contour>
      <point x="-507" y="131" type="line"/>
      <point x="175" y="131" type="line"/>
      <point x="175" y="262" type="line"/>
      <point x="-507" y="262" type="line"/>
    </contour>
  </outline>
</glyph>
<glyph name="degree" format="1">
  <advance width="919"/>
  <unicode hex="00B0"/>
  <outline>
    <contour>
      <point x="439" y="879" type="curve" smooth="yes"/>
      <point x="334" y="879"/>
      <point x="245" y="958"/>
      <point x="245" y="1065" type="curve" smooth="yes"/>
      <point x="245" y="1173"/>
      <point x="336" y="1253"/>
      <point x="439" y="1253" type="curve" smooth="yes"/>
      <point x="540" y="1253"/>
      <point x="634" y="1175"/>
      <point x="634" y="1065" type="curve" smooth="yes"/>
      <point x="634" y="959"/>
      <point x="542" y="879"/>
    </contour>
    <contour>
      <point x="424" y="688" type="curve" smooth="yes"/>
      <point x="637" y="688"/>
      <point x="853" y="833"/>
      <point x="853" y="1060" type="curve" smooth="yes"/>
      <point x="853" y="1283"/>
      <point x="657" y="1444"/>
      <point x="440" y="1444" type="curve" smooth="yes"/>
      <point x="234" y="1444"/>
      <point x="26" y="1287"/>
      <point x="26" y="1072" type="curve" smooth="yes"/>
      <point x="26" y="863"/>
      <point x="213" y="688"/>
    </contour>
  </outline>
</glyph>
<glyph name="plusminus" format="1">
  <advance width="1243"/>
  <unicode hex="00B1"/>
  <outline>
    <contour>
      <point x="492" y="511" type="line"/>
      <point x="837" y="511" type="line"/>
      <point x="837" y="868" type="line"/>
      <point x="1102" y="868" type="line"/>
      <point x="1102" y="1162" type="line"/>
      <point x="837" y="1162" type="line"/>
      <point x="837" y="1514" type="line"/>
      <point x="492" y="1514" type="line"/>
      <point x="492" y="1162" type="line"/>
      <point x="229" y="1162" type="line"/>
      <point x="229" y="868" type="line"/>
      <point x="492" y="868" type="line"/>
    </contour>
    <contour>
      <point x="250" y="21" type="line"/>
      <point x="1080" y="21" type="line"/>
      <point x="1080" y="302" type="line"/>
      <point x="250" y="302" type="line"/>
    </contour>
  </outline>
</glyph>
<glyph name="uni00B2" format="1">
  <advance width="1328"/>
  <unicode hex="00B2"/>
  <outline>
    <contour>
      <point x="236" y="604" type="line"/>
      <point x="941" y="604" type="line"/>
      <point x="941" y="824" type="line"/>
      <point x="640" y="824" type="line"/>
      <point x="629" y="815"/>
      <point x="821" y="966"/>
      <point x="807" y="955" type="curve" smooth="yes"/>
      <point x="976" y="1086"/>
      <point x="965" y="1157"/>
      <point x="965" y="1263" type="curve" smooth="yes"/>
      <point x="965" y="1487"/>
      <point x="757" y="1551"/>
      <point x="582" y="1551" type="curve" smooth="yes"/>
      <point x="422" y="1551"/>
      <point x="208" y="1438"/>
      <point x="198" y="1428" type="curve"/>
      <point x="300" y="1220" type="line"/>
      <point x="361" y="1257"/>
      <point x="485" y="1316"/>
      <point x="564" y="1316" type="curve" smooth="yes"/>
      <point x="650" y="1316"/>
      <point x="662" y="1277"/>
      <point x="662" y="1211" type="curve" smooth="yes"/>
      <point x="662" y="1132"/>
      <point x="534" y="1044"/>
      <point x="506" y="1022" type="curve" smooth="yes"/>
      <point x="543" y="1055"/>
      <point x="219" y="778"/>
      <point x="236" y="793" type="curve"/>
    </contour>
  </outline>
</glyph>
<glyph name="uni00B3" format="1">
  <advance width="1327"/>
  <unicode hex="00B3"/>
  <outline>
    <contour>
      <point x="535" y="534" type="curve"/>
      <point x="795" y="534"/>
      <point x="959" y="639"/>
      <point x="959" y="881" type="curve" smooth="yes"/>
      <point x="959" y="970"/>
      <point x="892" y="1080"/>
      <point x="802" y="1105" type="curve"/>
      <point x="888" y="1137"/>
      <point x="931" y="1221"/>
      <point x="931" y="1305" type="curve" smooth="yes"/>
      <point x="931" y="1544"/>
      <point x="779" y="1624"/>
      <point x="520" y="1624" type="curve" smooth="yes"/>
      <point x="360" y="1624"/>
      <point x="258" y="1561"/>
      <point x="216" y="1535" type="curve"/>
      <point x="324" y="1330" type="line"/>
      <point x="342" y="1336"/>
      <point x="455" y="1386"/>
      <point x="550" y="1386" type="curve" smooth="yes"/>
      <point x="618" y="1386"/>
      <point x="646" y="1357"/>
      <point x="646" y="1323" type="curve" smooth="yes"/>
      <point x="646" y="1244"/>
      <point x="549" y="1215"/>
      <point x="437" y="1215" type="curve"/>
      <point x="437" y="994" type="line"/>
      <point x="552" y="1000"/>
      <point x="664" y="953"/>
      <point x="664" y="871" type="curve" smooth="yes"/>
      <point x="664" y="794"/>
      <point x="630" y="770"/>
      <point x="523" y="770" type="curve" smooth="yes"/>
      <point x="407" y="770"/>
      <point x="304" y="819"/>
      <point x="321" y="810" type="curve"/>
      <point x="246" y="581" type="line"/>
      <point x="282" y="572"/>
      <point x="361" y="533"/>
    </contour>
  </outline>
</glyph>
<glyph name="paragraph" format="1">
  <advance width="1472"/>
  <unicode hex="00B6"/>
  <outline>
    <contour>
      <point x="708" y="0" type="line"/>
      <point x="994" y="0" type="line"/>
      <point x="994" y="1428" type="line"/>
      <point x="1129" y="1428" type="line"/>
      <point x="1129" y="0" type="line"/>
      <point x="1412" y="0" type="line"/>
      <point x="1412" y="1577" type="line"/>
      <point x="752" y="1577" type="line" smooth="yes"/>
      <point x="466" y="1577"/>
      <point x="122" y="1512"/>
      <point x="122" y="1118" type="curve" smooth="yes"/>
      <point x="122" y="746"/>
      <point x="388" y="636"/>
      <point x="708" y="636" type="curve"/>
    </contour>
  </outline>
</glyph>
<glyph name="cedilla" format="1">
  <advance width="720"/>
  <unicode hex="00B8"/>
  <outline>
    <contour>
      <point x="308" y="-699" type="curve" smooth="yes"/>
      <point x="509" y="-699"/>
      <point x="613" y="-596"/>
      <point x="613" y="-416" type="curve"/>
      <point x="607" y="-213"/>
      <point x="326" y="-172"/>
      <point x="252" y="-172" type="curve"/>
      <point x="266" y="-29" type="line"/>
      <point x="146" y="-29" type="line"/>
      <point x="132" y="-260" type="line"/>
      <point x="332" y="-260"/>
      <point x="395" y="-333"/>
      <point x="395" y="-429" type="curve" smooth="yes"/>
      <point x="395" y="-527"/>
      <point x="340" y="-538"/>
      <point x="257" y="-538" type="curve" smooth="yes"/>
      <point x="160" y="-538"/>
      <point x="108" y="-509"/>
      <point x="82" y="-494" type="curve"/>
      <point x="82" y="-638" type="line"/>
      <point x="146" y="-680"/>
      <point x="225" y="-699"/>
    </contour>
  </outline>
</glyph>
<glyph name="uni00B9" format="1">
  <advance width="1089"/>
  <unicode hex="00B9"/>
  <outline>
    <contour>
      <point x="408" y="789" type="line"/>
      <point x="728" y="789" type="line"/>
      <point x="728" y="1726" type="line"/>
      <point x="416" y="1716" type="line"/>
      <point x="211" y="1632" type="line"/>
      <point x="301" y="1412" type="line"/>
      <point x="408" y="1459" type="line"/>
    </contour>
  </outline>
</glyph>
<glyph name="onequarter" format="1">
  <advance width="2181"/>
  <unicode hex="00BC"/>
  <outline>
    <contour>
      <point x="1612" y="-77" type="line"/>
      <point x="1894" y="-85" type="line"/>
      <point x="1894" y="120" type="line"/>
      <point x="2028" y="120" type="line"/>
      <point x="2028" y="364" type="line"/>
      <point x="1894" y="364" type="line"/>
      <point x="1894" y="991" type="line"/>
      <point x="1657" y="1053" type="line"/>
      <point x="1155" y="301" type="line"/>
      <point x="1192" y="120" type="line"/>
      <point x="1612" y="120" type="line"/>
    </contour>
    <contour>
      <point x="297" y="350" type="line"/>
      <point x="601" y="350" type="line"/>
      <point x="601" y="1267" type="line"/>
      <point x="404" y="1313" type="line"/>
      <point x="100" y="1194" type="line"/>
      <point x="189" y="966" type="line"/>
      <point x="297" y="1013" type="line"/>
    </contour>
    <contour>
      <point x="870" y="-101" type="line"/>
      <point x="1456" y="1530" type="line"/>
      <point x="1189" y="1609" type="line"/>
      <point x="612" y="-29" type="line"/>
    </contour>
    <contour>
      <point x="1518" y="362" type="line"/>
      <point x="1467" y="290"/>
      <point x="1661" y="629"/>
      <point x="1612" y="556" type="curve"/>
      <point x="1612" y="362" type="line"/>
    </contour>
  </outline>
</glyph>
<glyph name="onehalf" format="1">
  <advance width="2265"/>
  <unicode hex="00BD"/>
  <outline>
    <contour>
      <point x="1408" y="200" type="line"/>
      <point x="2114" y="200" type="line"/>
      <point x="2114" y="438" type="line"/>
      <point x="1816" y="438" type="line"/>
      <point x="2068" y="567"/>
      <point x="2138" y="715"/>
      <point x="2137" y="858" type="curve"/>
      <point x="2137" y="1074"/>
      <point x="1942" y="1146"/>
      <point x="1753" y="1146" type="curve" smooth="yes"/>
      <point x="1604" y="1146"/>
      <point x="1470" y="1068"/>
      <point x="1371" y="1024" type="curve"/>
      <point x="1471" y="815" type="line"/>
      <point x="1527" y="849"/>
      <point x="1655" y="912"/>
      <point x="1735" y="912" type="curve" smooth="yes"/>
      <point x="1821" y="912"/>
      <point x="1834" y="872"/>
      <point x="1834" y="807" type="curve" smooth="yes"/>
      <point x="1834" y="635"/>
      <point x="1521" y="482"/>
      <point x="1408" y="388" type="curve"/>
    </contour>
    <contour>
      <point x="297" y="350" type="line"/>
      <point x="601" y="350" type="line"/>
      <point x="601" y="1267" type="line"/>
      <point x="404" y="1313" type="line"/>
      <point x="100" y="1194" type="line"/>
      <point x="189" y="966" type="line"/>
      <point x="297" y="1013" type="line"/>
    </contour>
    <contour>
      <point x="870" y="-101" type="line"/>
      <point x="1456" y="1530" type="line"/>
      <point x="1189" y="1609" type="line"/>
      <point x="612" y="-29" type="line"/>
    </contour>
  </outline>
</glyph>
<glyph name="questiondown" format="1">
  <advance width="1274"/>
  <unicode hex="00BF"/>
  <outline>
    <contour>
      <point x="728" y="-102" type="curve" smooth="yes"/>
      <point x="926" y="-102"/>
      <point x="1054" y="-81"/>
      <point x="1192" y="-14" type="curve"/>
      <point x="1102" y="281" type="line" smooth="yes"/>
      <point x="1137" y="299"/>
      <point x="872" y="215"/>
      <point x="762" y="215" type="curve" smooth="yes"/>
      <point x="641" y="215"/>
      <point x="535" y="218"/>
      <point x="535" y="337" type="curve" smooth="yes"/>
      <point x="535" y="504"/>
      <point x="815" y="523"/>
      <point x="972" y="595" type="curve"/>
      <point x="972" y="975" type="line"/>
      <point x="597" y="975" type="line"/>
      <point x="597" y="771" type="line"/>
      <point x="43" y="618"/>
      <point x="140" y="293"/>
      <point x="140" y="299" type="curve" smooth="yes"/>
      <point x="140" y="13"/>
      <point x="395" y="-102"/>
    </contour>
    <contour>
      <point x="760" y="1067" type="curve" smooth="yes"/>
      <point x="893" y="1067"/>
      <point x="980" y="1169"/>
      <point x="980" y="1298" type="curve" smooth="yes"/>
      <point x="980" y="1426"/>
      <point x="886" y="1524"/>
      <point x="758" y="1524" type="curve" smooth="yes"/>
      <point x="629" y="1524"/>
      <point x="537" y="1426"/>
      <point x="537" y="1296" type="curve" smooth="yes"/>
      <point x="537" y="1163"/>
      <point x="629" y="1067"/>
    </contour>
  </outline>
</glyph>
<glyph name="AE" format="1">
  <advance width="1960"/>
  <unicode hex="00C6"/>
  <outline>
    <contour>
      <point x="19" y="0" type="line"/>
      <point x="436" y="0" type="line"/>
      <point x="531" y="342" type="line"/>
      <point x="790" y="342" type="line"/>
      <point x="790" y="0" type="line"/>
      <point x="1908" y="0" type="line"/>
      <point x="1908" y="254" type="line"/>
      <point x="1227" y="254" type="line"/>
      <point x="1227" y="733" type="line"/>
      <point x="1796" y="733" type="line"/>
      <point x="1796" y="958" type="line"/>
      <point x="1228" y="958" type="line"/>
      <point x="1228" y="1350" type="line"/>
      <point x="1905" y="1350" type="line"/>
      <point x="1905" y="1576" type="line"/>
      <point x="559" y="1576" type="line"/>
    </contour>
    <contour>
      <point x="573" y="530" type="line"/>
      <point x="791" y="1298" type="line"/>
      <point x="791" y="530" type="line"/>
    </contour>
  </outline>
</glyph>
<glyph name="germandbls" format="1">
  <advance width="1665"/>
  <unicode hex="00DF"/>
  <outline>
    <contour>
      <point x="688" y="-223" type="line"/>
      <point x="1175" y="-223"/>
      <point x="1599" y="-22"/>
      <point x="1599" y="340" type="curve"/>
      <point x="1599" y="619"/>
      <point x="1430" y="764"/>
      <point x="1079" y="809" type="curve"/>
      <point x="1350" y="843"/>
      <point x="1449" y="989"/>
      <point x="1449" y="1150" type="curve" smooth="yes"/>
      <point x="1449" y="1259"/>
      <point x="1416" y="1575"/>
      <point x="835" y="1579" type="curve"/>
      <point x="365" y="1579"/>
      <point x="150" y="1364"/>
      <point x="150" y="954" type="curve" smooth="yes"/>
      <point x="150" y="2" type="line"/>
      <point x="589" y="-6" type="line"/>
      <point x="589" y="965" type="line" smooth="yes"/>
      <point x="589" y="1239"/>
      <point x="665" y="1294"/>
      <point x="835" y="1294" type="curve" smooth="yes"/>
      <point x="1071" y="1294"/>
      <point x="1067" y="1196"/>
      <point x="1067" y="1110" type="curve" smooth="yes"/>
      <point x="1067" y="985"/>
      <point x="987" y="911"/>
      <point x="801" y="908" type="curve" smooth="yes"/>
      <point x="806" y="908"/>
      <point x="733" y="908"/>
      <point x="739" y="908" type="curve"/>
      <point x="740" y="707"/>
      <point x="739" y="656"/>
      <point x="739" y="656" type="curve"/>
      <point x="1087" y="656"/>
      <point x="1162" y="512"/>
      <point x="1162" y="338" type="curve" smooth="yes"/>
      <point x="1162" y="266"/>
      <point x="1122" y="148"/>
      <point x="686" y="106" type="curve"/>
    </contour>
  </outline>
</glyph>
<glyph name="ae" format="1">
  <advance width="1855"/>
  <unicode hex="00E6"/>
  <outline>
    <contour>
      <point x="487" y="-16" type="curve" smooth="yes"/>
      <point x="646" y="-16"/>
      <point x="813" y="25"/>
      <point x="906" y="197" type="curve"/>
      <point x="977" y="51"/>
      <point x="1071" y="-13"/>
      <point x="1274" y="-13" type="curve" smooth="yes"/>
      <point x="1439" y="-13"/>
      <point x="1565" y="11"/>
      <point x="1705" y="73" type="curve"/>
      <point x="1638" y="341" type="line"/>
      <point x="1556" y="287"/>
      <point x="1464" y="259"/>
      <point x="1359" y="259" type="curve" smooth="yes"/>
      <point x="1239" y="259"/>
      <point x="1136" y="346"/>
      <point x="1127" y="477" type="curve"/>
      <point x="1768" y="477" type="line"/>
      <point x="1766" y="463"/>
      <point x="1765" y="676"/>
      <point x="1765" y="662" type="curve" smooth="yes"/>
      <point x="1765" y="980"/>
      <point x="1579" y="1184"/>
      <point x="1286" y="1184" type="curve" smooth="yes"/>
      <point x="1148" y="1184"/>
      <point x="1034" y="1146"/>
      <point x="968" y="1064" type="curve"/>
      <point x="905" y="1130"/>
      <point x="808" y="1184"/>
      <point x="643" y="1184" type="curve" smooth="yes"/>
      <point x="473" y="1184"/>
      <point x="274" y="1141"/>
      <point x="166" y="1079" type="curve"/>
      <point x="207" y="824" type="line"/>
      <point x="332" y="847"/>
      <point x="461" y="892"/>
      <point x="623" y="893" type="curve"/>
      <point x="726" y="893"/>
      <point x="743" y="821"/>
      <point x="746" y="757" type="curve" smooth="yes"/>
      <point x="746" y="737" type="line"/>
      <point x="717" y="735"/>
      <point x="700" y="734"/>
      <point x="651" y="734" type="curve" smooth="yes"/>
      <point x="358" y="734"/>
      <point x="85" y="688"/>
      <point x="85" y="385" type="curve" smooth="yes"/>
      <point x="85" y="127"/>
      <point x="224" y="-16"/>
    </contour>
    <contour>
      <point x="587" y="255" type="curve" smooth="yes"/>
      <point x="520" y="255"/>
      <point x="466" y="318"/>
      <point x="466" y="396" type="curve" smooth="yes"/>
      <point x="466" y="484"/>
      <point x="511" y="530"/>
      <point x="684" y="530" type="curve" smooth="yes"/>
      <point x="698" y="530"/>
      <point x="719" y="529"/>
      <point x="746" y="527" type="curve"/>
      <point x="746" y="325" type="line"/>
      <point x="690" y="276"/>
      <point x="645" y="255"/>
    </contour>
    <contour>
      <point x="1127" y="674" type="line"/>
      <point x="1127" y="673"/>
      <point x="1127" y="707"/>
      <point x="1127" y="706" type="curve"/>
      <point x="1137" y="804"/>
      <point x="1181" y="909"/>
      <point x="1277" y="909" type="curve" smooth="yes"/>
      <point x="1378" y="909"/>
      <point x="1430" y="830"/>
      <point x="1436" y="682" type="curve" smooth="yes"/>
      <point x="1436" y="674" type="line"/>
    </contour>
  </outline>
</glyph>
<glyph name="divide" format="1">
  <advance width="1370"/>
  <unicode hex="00F7"/>
  <outline>
    <contour>
      <point x="700" y="72" type="curve" smooth="yes"/>
      <point x="829" y="72"/>
      <point x="920" y="170"/>
      <point x="920" y="297" type="curve" smooth="yes"/>
      <point x="920" y="423"/>
      <point x="826" y="521"/>
      <point x="700" y="521" type="curve" smooth="yes"/>
      <point x="573" y="521"/>
      <point x="481" y="425"/>
      <point x="481" y="297" type="curve" smooth="yes"/>
      <point x="481" y="168"/>
      <point x="572" y="72"/>
    </contour>
    <contour>
      <point x="127" y="626" type="line"/>
      <point x="1256" y="626" type="line"/>
      <point x="1256" y="939" type="line"/>
      <point x="127" y="939" type="line"/>
    </contour>
    <contour>
      <point x="695" y="1047" type="curve" smooth="yes"/>
      <point x="824" y="1047"/>
      <point x="915" y="1144"/>
      <point x="915" y="1271" type="curve" smooth="yes"/>
      <point x="915" y="1397"/>
      <point x="821" y="1496"/>
      <point x="695" y="1496" type="curve" smooth="yes"/>
      <point x="568" y="1496"/>
      <point x="476" y="1400"/>
      <point x="476" y="1271" type="curve" smooth="yes"/>
      <point x="476" y="1143"/>
      <point x="567" y="1047"/>
    </contour>
  </outline>
</glyph>
<glyph name="oslash" format="1">
  <advance width="1346"/>
  <unicode hex="00F8"/>
  <outline>
    <contour>
      <point x="488" y="-169" type="line"/>
      <point x="537" y="-20" type="line"/>
      <point x="576" y="-25"/>
      <point x="619" y="-28"/>
      <point x="666" y="-28" type="curve" smooth="yes"/>
      <point x="1036" y="-28"/>
      <point x="1249" y="180"/>
      <point x="1249" y="582" type="curve" smooth="yes"/>
      <point x="1249" y="892"/>
      <point x="1123" y="1080"/>
      <point x="921" y="1155" type="curve"/>
      <point x="976" y="1325" type="line"/>
      <point x="864" y="1364" type="line"/>
      <point x="806" y="1187" type="line"/>
      <point x="763" y="1194"/>
      <point x="716" y="1198"/>
      <point x="665" y="1198" type="curve" smooth="yes"/>
      <point x="301" y="1198"/>
      <point x="81" y="992"/>
      <point x="81" y="582" type="curve" smooth="yes"/>
      <point x="81" y="270"/>
      <point x="210" y="82"/>
      <point x="421" y="10" type="curve"/>
      <point x="375" y="-131" type="line"/>
    </contour>
    <contour>
      <point x="525" y="327" type="line"/>
      <point x="498" y="399"/>
      <point x="496" y="502"/>
      <point x="496" y="585" type="curve" smooth="yes"/>
      <point x="496" y="854"/>
      <point x="563" y="925"/>
      <point x="666" y="925" type="curve" smooth="yes"/>
      <point x="686" y="925"/>
      <point x="703" y="922"/>
      <point x="717" y="918" type="curve"/>
    </contour>
    <contour>
      <point x="666" y="243" type="curve" smooth="yes"/>
      <point x="650" y="243"/>
      <point x="636" y="246"/>
      <point x="625" y="249" type="curve"/>
      <point x="815" y="833" type="line"/>
      <point x="821" y="783"/>
      <point x="837" y="716"/>
      <point x="837" y="585" type="curve" smooth="yes"/>
      <point x="837" y="316"/>
      <point x="769" y="243"/>
    </contour>
  </outline>
</glyph>
<glyph name="thorn" format="1">
  <advance width="1358"/>
  <unicode hex="00FE"/>
  <outline>
    <contour>
      <point x="123" y="-375" type="line"/>
      <point x="538" y="-383" type="line"/>
      <point x="538" y="91" type="line"/>
      <point x="589" y="16"/>
      <point x="660" y="-31"/>
      <point x="778" y="-31" type="curve" smooth="yes"/>
      <point x="1051" y="-31"/>
      <point x="1272" y="147"/>
      <point x="1272" y="558" type="curve" smooth="yes"/>
      <point x="1272" y="938"/>
      <point x="1113" y="1173"/>
      <point x="794" y="1173" type="curve" smooth="yes"/>
      <point x="675" y="1173"/>
      <point x="572" y="1139"/>
      <point x="533" y="1055" type="curve"/>
      <point x="533" y="1583" type="line"/>
      <point x="123" y="1583" type="line"/>
    </contour>
    <contour>
      <point x="723" y="238" type="curve" smooth="yes"/>
      <point x="642" y="238"/>
      <point x="590" y="266"/>
      <point x="535" y="324" type="curve"/>
      <point x="529" y="855" type="line"/>
      <point x="539" y="868"/>
      <point x="551" y="901"/>
      <point x="683" y="901" type="curve" smooth="yes"/>
      <point x="771" y="901"/>
      <point x="852" y="858"/>
      <point x="852" y="607" type="curve" smooth="yes"/>
      <point x="852" y="469"/>
      <point x="871" y="238"/>
    </contour>
  </outline>
</glyph>
<glyph name="dcroat" format="1">
  <advance width="1349"/>
  <unicode hex="0111"/>
  <outline>
    <contour>
      <point x="526" y="-28" type="curve" smooth="yes"/>
      <point x="657" y="-28"/>
      <point x="809" y="47"/>
      <point x="824" y="161" type="curve"/>
      <point x="918" y="0" type="line"/>
      <point x="1206" y="0" type="line"/>
      <point x="1206" y="1284" type="line"/>
      <point x="1349" y="1284" type="line"/>
      <point x="1349" y="1442" type="line"/>
      <point x="1206" y="1442" type="line"/>
      <point x="1206" y="1661" type="line"/>
      <point x="793" y="1564" type="line"/>
      <point x="793" y="1442" type="line"/>
      <point x="667" y="1442" type="line"/>
      <point x="667" y="1284" type="line"/>
      <point x="793" y="1284" type="line"/>
      <point x="793" y="1053" type="line"/>
      <point x="723" y="1153"/>
      <point x="641" y="1198"/>
      <point x="506" y="1198" type="curve" smooth="yes"/>
      <point x="255" y="1198"/>
      <point x="64" y="981"/>
      <point x="64" y="639" type="curve" smooth="yes"/>
      <point x="64" y="319"/>
      <point x="128" y="-28"/>
    </contour>
    <contour>
      <point x="644" y="246" type="curve" smooth="yes"/>
      <point x="556" y="246"/>
      <point x="480" y="317"/>
      <point x="480" y="586" type="curve" smooth="yes"/>
      <point x="480" y="856"/>
      <point x="522" y="929"/>
      <point x="604" y="929" type="curve" smooth="yes"/>
      <point x="660" y="929"/>
      <point x="722" y="906"/>
      <point x="793" y="838" type="curve"/>
      <point x="793" y="304" type="line"/>
      <point x="768" y="261"/>
      <point x="729" y="246"/>
    </contour>
  </outline>
</glyph>
<glyph name="dotlessi" format="1">
  <advance width="772"/>
  <unicode hex="0131"/>
  <outline>
    <contour>
      <point x="175" y="0" type="line"/>
      <point x="591" y="0" type="line"/>
      <point x="591" y="1157" type="line"/>
      <point x="175" y="1157" type="line"/>
    </contour>
  </outline>
</glyph>
<glyph name="kgreenlandic" format="1">
  <advance width="1346"/>
  <unicode hex="0138"/>
  <outline>
    <contour>
      <point x="142" y="0" type="line"/>
      <point x="555" y="0" type="line"/>
      <point x="555" y="370" type="line"/>
      <point x="638" y="454" type="line"/>
      <point x="915" y="0" type="line"/>
      <point x="1391" y="0" type="line"/>
      <point x="908" y="644" type="line"/>
      <point x="1404" y="1157" type="line"/>
      <point x="931" y="1157" type="line"/>
      <point x="555" y="723" type="line"/>
      <point x="555" y="984" type="line"/>
      <point x="142" y="998" type="line"/>
    </contour>
  </outline>
</glyph>
<glyph name="OE" format="1">
  <advance width="2316"/>
  <unicode hex="0152"/>
  <outline>
    <contour>
      <point x="768" y="-24" type="curve" smooth="yes"/>
      <point x="894" y="-24"/>
      <point x="1049" y="44"/>
      <point x="1119" y="102" type="curve"/>
      <point x="1119" y="0" type="line"/>
      <point x="2195" y="0" type="line"/>
      <point x="2195" y="316" type="line"/>
      <point x="1554" y="316" type="line"/>
      <point x="1554" y="675" type="line"/>
      <point x="2127" y="675" type="line"/>
      <point x="2127" y="944" type="line"/>
      <point x="1554" y="944" type="line"/>
      <point x="1554" y="1261" type="line"/>
      <point x="2186" y="1261" type="line"/>
      <point x="2186" y="1578" type="line"/>
      <point x="1119" y="1578" type="line"/>
      <point x="1119" y="1543" type="line"/>
      <point x="1059" y="1564"/>
      <point x="932" y="1599"/>
      <point x="828" y="1599" type="curve" smooth="yes"/>
      <point x="354" y="1599"/>
      <point x="90" y="1336"/>
      <point x="90" y="791" type="curve" smooth="yes"/>
      <point x="90" y="289"/>
      <point x="350" y="-24"/>
    </contour>
    <contour>
      <point x="818" y="287" type="curve" smooth="yes"/>
      <point x="594" y="287"/>
      <point x="525" y="494"/>
      <point x="525" y="791" type="curve" smooth="yes"/>
      <point x="525" y="1090"/>
      <point x="598" y="1293"/>
      <point x="821" y="1293" type="curve" smooth="yes"/>
      <point x="1045" y="1293"/>
      <point x="1119" y="1092"/>
      <point x="1119" y="791" type="curve" smooth="yes"/>
      <point x="1119" y="495"/>
      <point x="1050" y="287"/>
    </contour>
  </outline>
</glyph>
<glyph name="oe" format="1">
  <advance width="1981"/>
  <unicode hex="0153"/>
  <outline>
    <contour>
      <point x="640" y="-28" type="curve" smooth="yes"/>
      <point x="791" y="-28"/>
      <point x="914" y="11"/>
      <point x="1005" y="95" type="curve"/>
      <point x="1121" y="11"/>
      <point x="1277" y="-28"/>
      <point x="1450" y="-28" type="curve" smooth="yes"/>
      <point x="1589" y="-28"/>
      <point x="1710" y="-2"/>
      <point x="1842" y="59" type="curve"/>
      <point x="1775" y="327" type="line"/>
      <point x="1693" y="275"/>
      <point x="1597" y="249"/>
      <point x="1483" y="249" type="curve" smooth="yes"/>
      <point x="1355" y="249"/>
      <point x="1245" y="325"/>
      <point x="1238" y="478" type="curve"/>
      <point x="1902" y="478" type="line"/>
      <point x="1900" y="464"/>
      <point x="1898" y="677"/>
      <point x="1898" y="662" type="curve" smooth="yes"/>
      <point x="1898" y="988"/>
      <point x="1721" y="1198"/>
      <point x="1405" y="1198" type="curve" smooth="yes"/>
      <point x="1243" y="1198"/>
      <point x="1109" y="1153"/>
      <point x="1008" y="1069" type="curve"/>
      <point x="916" y="1157"/>
      <point x="790" y="1198"/>
      <point x="639" y="1198" type="curve" smooth="yes"/>
      <point x="274" y="1198"/>
      <point x="55" y="992"/>
      <point x="55" y="582" type="curve" smooth="yes"/>
      <point x="55" y="180"/>
      <point x="270" y="-28"/>
    </contour>
    <contour>
      <point x="640" y="243" type="curve" smooth="yes"/>
      <point x="474" y="243"/>
      <point x="470" y="450"/>
      <point x="470" y="585" type="curve" smooth="yes"/>
      <point x="470" y="854"/>
      <point x="537" y="925"/>
      <point x="640" y="925" type="curve" smooth="yes"/>
      <point x="743" y="925"/>
      <point x="811" y="854"/>
      <point x="811" y="585" type="curve" smooth="yes"/>
      <point x="811" y="316"/>
      <point x="743" y="243"/>
    </contour>
    <contour>
      <point x="1221" y="674" type="line"/>
      <point x="1214" y="822"/>
      <point x="1287" y="922"/>
      <point x="1396" y="922" type="curve" smooth="yes"/>
      <point x="1512" y="922"/>
      <point x="1578" y="858"/>
      <point x="1583" y="678" type="curve" smooth="yes"/>
      <point x="1583" y="672"/>
      <point x="1583" y="680"/>
      <point x="1583" y="674" type="curve"/>
    </contour>
  </outline>
</glyph>
<glyph name="circumflex" format="1">
  <advance width="1365"/>
  <unicode hex="02C6"/>
  <outline>
    <contour>
      <point x="280" y="1603" type="line"/>
      <point x="611" y="1633" type="line"/>
      <point x="681" y="2016" type="line"/>
      <point x="750" y="1633" type="line"/>
      <point x="1085" y="1603" type="line"/>
      <point x="840" y="2286" type="line"/>
      <point x="525" y="2286" type="line"/>
    </contour>
  </outline>
</glyph>
<glyph name="dotaccent" format="1">
  <advance width="616"/>
  <unicode hex="02D9"/>
  <outline>
    <contour>
      <point x="315" y="1807" type="curve" smooth="yes"/>
      <point x="441" y="1807"/>
      <point x="545" y="1903"/>
      <point x="545" y="2032" type="curve" smooth="yes"/>
      <point x="545" y="2159"/>
      <point x="439" y="2256"/>
      <point x="315" y="2256" type="curve" smooth="yes"/>
      <point x="188" y="2256"/>
      <point x="90" y="2159"/>
      <point x="90" y="2032" type="curve" smooth="yes"/>
      <point x="90" y="1909"/>
      <point x="184" y="1807"/>
    </contour>
  </outline>
</glyph>
<glyph name="ring" format="1">
  <advance width="1069"/>
  <unicode hex="02DA"/>
  <outline>
    <contour>
      <point x="533" y="1693" type="curve" smooth="yes"/>
      <point x="429" y="1693"/>
      <point x="340" y="1772"/>
      <point x="340" y="1880" type="curve" smooth="yes"/>
      <point x="340" y="1982"/>
      <point x="425" y="2068"/>
      <point x="533" y="2068" type="curve" smooth="yes"/>
      <point x="634" y="2068"/>
      <point x="728" y="1990"/>
      <point x="728" y="1880" type="curve" smooth="yes"/>
      <point x="728" y="1773"/>
      <point x="637" y="1693"/>
    </contour>
    <contour>
      <point x="519" y="1502" type="curve" smooth="yes"/>
      <point x="732" y="1502"/>
      <point x="948" y="1647"/>
      <point x="948" y="1874" type="curve" smooth="yes"/>
      <point x="948" y="2098"/>
      <point x="751" y="2259"/>
      <point x="534" y="2259" type="curve" smooth="yes"/>
      <point x="328" y="2259"/>
      <point x="121" y="2102"/>
      <point x="121" y="1887" type="curve" smooth="yes"/>
      <point x="121" y="1677"/>
      <point x="307" y="1502"/>
    </contour>
  </outline>
</glyph>
<glyph name="tilde" format="1">
  <advance width="1319"/>
  <unicode hex="02DC"/>
  <outline>
    <contour>
      <point x="905" y="1614" type="curve" smooth="yes"/>
      <point x="1052" y="1614"/>
      <point x="1153" y="1743"/>
      <point x="1153" y="1968" type="curve"/>
      <point x="908" y="1968" type="line"/>
      <point x="908" y="1866"/>
      <point x="895" y="1866"/>
      <point x="850" y="1866" type="curve" smooth="yes"/>
      <point x="804" y="1866"/>
      <point x="565" y="2029"/>
      <point x="462" y="2016" type="curve"/>
      <point x="311" y="2016"/>
      <point x="221" y="1902"/>
      <point x="221" y="1648" type="curve"/>
      <point x="449" y="1648" type="line"/>
      <point x="449" y="1758"/>
      <point x="475" y="1777"/>
      <point x="509" y="1777" type="curve" smooth="yes"/>
      <point x="532" y="1777"/>
      <point x="824" y="1614"/>
    </contour>
  </outline>
</glyph>
<glyph name="hungarumlaut" format="1">
  <advance width="1195"/>
  <unicode hex="02DD"/>
  <outline>
    <contour>
      <point x="487" y="1674" type="line"/>
      <point x="768" y="2259" type="line"/>
      <point x="453" y="2421" type="line"/>
      <point x="347" y="1766" type="line"/>
    </contour>
    <contour>
      <point x="907" y="1674" type="line"/>
      <point x="1299" y="2259" type="line"/>
      <point x="970" y="2421" type="line"/>
      <point x="753" y="1766" type="line"/>
    </contour>
  </outline>
</glyph>
<glyph name="uni030F" format="1">
  <advance width="1355"/>
  <unicode hex="030F"/>
  <outline>
    <contour>
      <point x="269" y="1674" type="line"/>
      <point x="423" y="1766" type="line"/>
      <point x="148" y="2380" type="line"/>
      <point x="-154" y="2214" type="line"/>
    </contour>
    <contour>
      <point x="681" y="1674" type="line"/>
      <point x="821" y="1766" type="line"/>
      <point x="656" y="2380" type="line"/>
      <point x="369" y="2214" type="line"/>
    </contour>
  </outline>
</glyph>
<glyph name="uni0311" format="1">
  <advance width="679"/>
  <unicode hex="0311"/>
  <outline>
    <contour>
      <point x="-50" y="1453" type="curve"/>
      <point x="219" y="1453" type="line"/>
      <point x="222" y="1556"/>
      <point x="292" y="1604"/>
      <point x="353" y="1604" type="curve" smooth="yes"/>
      <point x="419" y="1604"/>
      <point x="491" y="1555"/>
      <point x="493" y="1453" type="curve"/>
      <point x="763" y="1453" type="line"/>
      <point x="748" y="1713"/>
      <point x="547" y="1831"/>
      <point x="352" y="1831" type="curve" smooth="yes"/>
      <point x="163" y="1831"/>
      <point x="-35" y="1712"/>
    </contour>
  </outline>
</glyph>
<glyph name="uni0326" format="1">
  <advance width="799"/>
  <unicode hex="0326"/>
  <outline>
    <contour>
      <point x="245" y="-902" type="line"/>
      <point x="422" y="-849"/>
      <point x="649" y="-791"/>
      <point x="649" y="-517" type="curve" smooth="yes"/>
      <point x="649" y="-112" type="line"/>
      <point x="178" y="-112" type="line"/>
      <point x="178" y="-574" type="line"/>
      <point x="374" y="-574" type="line"/>
      <point x="374" y="-679"/>
      <point x="322" y="-727"/>
      <point x="179" y="-780" type="curve"/>
    </contour>
  </outline>
</glyph>
<glyph name="mu" format="1">
  <advance width="1399"/>
  <unicode hex="03BC"/>
  <outline>
    <contour>
      <point x="563" y="-564" type="line"/>
      <point x="563" y="-22" type="line" smooth="yes"/>
      <point x="540" y="3"/>
      <point x="613" y="-13"/>
      <point x="652" y="-13" type="curve" smooth="yes"/>
      <point x="831" y="-13"/>
      <point x="895" y="101"/>
      <point x="887" y="167" type="curve"/>
      <point x="986" y="-5" type="line"/>
      <point x="1273" y="-5" type="line"/>
      <point x="1273" y="1158" type="line"/>
      <point x="865" y="1158" type="line"/>
      <point x="865" y="305" type="line"/>
      <point x="838" y="275"/>
      <point x="804" y="256"/>
      <point x="729" y="256" type="curve" smooth="yes"/>
      <point x="704" y="256"/>
      <point x="601" y="261"/>
      <point x="563" y="213" type="curve"/>
      <point x="563" y="1158" type="line"/>
      <point x="145" y="1158" type="line"/>
      <point x="145" y="-481" type="line"/>
    </contour>
  </outline>
</glyph>
<glyph name="quoteleft" format="1">
  <advance width="727"/>
  <unicode hex="2018"/>
  <outline>
    <contour>
      <point x="118" y="787" type="line"/>
      <point x="589" y="787" type="line"/>
      <point x="589" y="1250" type="line"/>
      <point x="393" y="1250" type="line"/>
      <point x="393" y="1353"/>
      <point x="445" y="1402"/>
      <point x="588" y="1456" type="curve"/>
      <point x="522" y="1578" type="line"/>
      <point x="346" y="1525"/>
      <point x="118" y="1465"/>
      <point x="118" y="1193" type="curve" smooth="yes"/>
    </contour>
  </outline>
</glyph>
<glyph name="quoteright" format="1">
  <advance width="546"/>
  <unicode hex="2019"/>
  <outline>
    <contour>
      <point x="102" y="787" type="line"/>
      <point x="287" y="842"/>
      <point x="506" y="904"/>
      <point x="506" y="1172" type="curve" smooth="yes"/>
      <point x="506" y="1578" type="line"/>
      <point x="35" y="1578" type="line"/>
      <point x="35" y="1115" type="line"/>
      <point x="231" y="1115" type="line"/>
      <point x="231" y="1011"/>
      <point x="179" y="962"/>
      <point x="36" y="909" type="curve"/>
    </contour>
  </outline>
</glyph>
<glyph name="daggerdbl" format="1">
  <advance width="1182"/>
  <unicode hex="2021"/>
  <outline>
    <contour>
      <point x="375" y="0" type="line"/>
      <point x="813" y="0" type="line"/>
      <point x="813" y="398" type="line"/>
      <point x="1245" y="398" type="line"/>
      <point x="1245" y="716" type="line"/>
      <point x="813" y="716" type="line"/>
      <point x="813" y="958" type="line"/>
      <point x="1244" y="958" type="line"/>
      <point x="1244" y="1275" type="line"/>
      <point x="812" y="1275" type="line"/>
      <point x="812" y="1708" type="line"/>
      <point x="375" y="1708" type="line"/>
      <point x="375" y="1275" type="line"/>
      <point x="-62" y="1275" type="line"/>
      <point x="-62" y="958" type="line"/>
      <point x="375" y="958" type="line"/>
      <point x="375" y="716" type="line"/>
      <point x="-62" y="716" type="line"/>
      <point x="-62" y="398" type="line"/>
      <point x="375" y="398" type="line"/>
    </contour>
  </outline>
</glyph>
<glyph name="bullet" format="1">
  <advance width="1329"/>
  <unicode hex="2022"/>
  <outline>
    <contour>
      <point x="669" y="301" type="curve" smooth="yes"/>
      <point x="897" y="301"/>
      <point x="1073" y="492"/>
      <point x="1073" y="675" type="curve" smooth="yes"/>
      <point x="1073" y="898"/>
      <point x="862" y="1050"/>
      <point x="658" y="1050" type="curve" smooth="yes"/>
      <point x="445" y="1050"/>
      <point x="256" y="874"/>
      <point x="256" y="675" type="curve" smooth="yes"/>
      <point x="256" y="450"/>
      <point x="467" y="301"/>
    </contour>
  </outline>
</glyph>
<glyph name="guilsinglright" format="1">
  <advance width="1351"/>
  <unicode hex="203A"/>
  <outline>
    <contour>
      <point x="271" y="-90" type="line"/>
      <point x="1201" y="474" type="line"/>
      <point x="1201" y="730" type="line"/>
      <point x="270" y="1293" type="line"/>
      <point x="270" y="956" type="line"/>
      <point x="843" y="601" type="line"/>
      <point x="271" y="248" type="line"/>
    </contour>
  </outline>
</glyph>
<glyph name="fraction" format="1">
  <advance width="771"/>
  <unicode hex="2044"/>
  <outline>
    <contour>
      <point x="430" y="-156" type="line"/>
      <point x="825" y="1697" type="line"/>
      <point x="483" y="1784" type="line"/>
      <point x="93" y="-72" type="line"/>
    </contour>
  </outline>
</glyph>
<glyph name="uni2074" format="1">
  <advance width="1158"/>
  <unicode hex="2074"/>
  <outline>
    <contour>
      <point x="594" y="517" type="line"/>
      <point x="876" y="508" type="line"/>
      <point x="876" y="714" type="line"/>
      <point x="1010" y="714" type="line"/>
      <point x="1010" y="957" type="line"/>
      <point x="876" y="957" type="line"/>
      <point x="876" y="1584" type="line"/>
      <point x="638" y="1646" type="line"/>
      <point x="137" y="894" type="line"/>
      <point x="174" y="714" type="line"/>
      <point x="594" y="714" type="line"/>
    </contour>
    <contour>
      <point x="500" y="955" type="line"/>
      <point x="449" y="884"/>
      <point x="643" y="1222"/>
      <point x="594" y="1149" type="curve"/>
      <point x="594" y="955" type="line"/>
    </contour>
  </outline>
</glyph>
<glyph name="Euro" format="1">
  <advance width="1414"/>
  <unicode hex="20AC"/>
  <outline>
    <contour>
      <point x="812" y="-37" type="curve" smooth="yes"/>
      <point x="1032" y="-37"/>
      <point x="1163" y="40"/>
      <point x="1226" y="109" type="curve"/>
      <point x="1149" y="414" type="line"/>
      <point x="1089" y="369"/>
      <point x="979" y="293"/>
      <point x="842" y="293" type="curve" smooth="yes"/>
      <point x="721" y="293"/>
      <point x="622" y="336"/>
      <point x="590" y="546" type="curve"/>
      <point x="915" y="546" type="line"/>
      <point x="915" y="761" type="line"/>
      <point x="580" y="761" type="line"/>
      <point x="581" y="816"/>
      <point x="584" y="852"/>
      <point x="586" y="873" type="curve"/>
      <point x="983" y="873" type="line"/>
      <point x="983" y="1088" type="line"/>
      <point x="634" y="1088" type="line"/>
      <point x="712" y="1246"/>
      <point x="819" y="1323"/>
      <point x="922" y="1323" type="curve" smooth="yes"/>
      <point x="1117" y="1323"/>
      <point x="1268" y="1208"/>
      <point x="1244" y="1217" type="curve"/>
      <point x="1342" y="1536" type="line"/>
      <point x="1300" y="1571"/>
      <point x="1179" y="1662"/>
      <point x="949" y="1661" type="curve"/>
      <point x="1073" y="1661"/>
      <point x="343" y="1439"/>
      <point x="246" y="1088" type="curve"/>
      <point x="78" y="1088" type="line"/>
      <point x="78" y="873" type="line"/>
      <point x="218" y="873" type="line"/>
      <point x="215" y="838"/>
      <point x="214" y="831"/>
      <point x="213" y="761" type="curve"/>
      <point x="97" y="761" type="line"/>
      <point x="97" y="546" type="line"/>
      <point x="218" y="546" type="line"/>
      <point x="256" y="68"/>
      <point x="526" y="-37"/>
    </contour>
  </outline>
</glyph>
<glyph name="trademark" format="1">
  <advance width="2399"/>
  <unicode hex="2122"/>
  <outline>
    <contour>
      <point x="1082" y="433" type="line"/>
      <point x="1302" y="433" type="line"/>
      <point x="1302" y="1135" type="line"/>
      <point x="1543" y="433" type="line"/>
      <point x="1778" y="433" type="line"/>
      <point x="2016" y="1135" type="line"/>
      <point x="2016" y="433" type="line"/>
      <point x="2238" y="433" type="line"/>
      <point x="2238" y="1523" type="line"/>
      <point x="1941" y="1523" type="line"/>
      <point x="1653" y="741" type="line"/>
      <point x="1377" y="1523" type="line"/>
      <point x="1082" y="1523" type="line"/>
    </contour>
    <contour>
      <point x="433" y="433" type="line"/>
      <point x="707" y="433" type="line"/>
      <point x="707" y="1338" type="line"/>
      <point x="981" y="1338" type="line"/>
      <point x="981" y="1523" type="line"/>
      <point x="153" y="1523" type="line"/>
      <point x="153" y="1338" type="line"/>
      <point x="433" y="1338" type="line"/>
    </contour>
  </outline>
</glyph>
<glyph name="integral" format="1">
  <advance width="1274"/>
  <unicode hex="222B"/>
  <outline>
    <contour>
      <point x="294" y="-488" type="curve" smooth="yes"/>
      <point x="560" y="-488"/>
      <point x="747" y="-340"/>
      <point x="784" y="13" type="curve" smooth="yes"/>
      <point x="906" y="1162" type="line" smooth="yes"/>
      <point x="926" y="1351"/>
      <point x="1010" y="1359"/>
      <point x="1053" y="1359" type="curve" smooth="yes"/>
      <point x="1106" y="1359"/>
      <point x="1154" y="1362"/>
      <point x="1199" y="1353" type="curve"/>
      <point x="1207" y="1659" type="line"/>
      <point x="1126" y="1665"/>
      <point x="1057" y="1663"/>
      <point x="983" y="1663" type="curve" smooth="yes"/>
      <point x="717" y="1663"/>
      <point x="530" y="1515"/>
      <point x="493" y="1162" type="curve" smooth="yes"/>
      <point x="370" y="13" type="line"/>
      <point x="351" y="-176"/>
      <point x="267" y="-184"/>
      <point x="224" y="-184" type="curve" smooth="yes"/>
      <point x="170" y="-184"/>
      <point x="123" y="-187"/>
      <point x="78" y="-178" type="curve"/>
      <point x="70" y="-483" type="line"/>
      <point x="151" y="-490"/>
      <point x="219" y="-488"/>
    </contour>
  </outline>
</glyph>
<glyph name="notequal" format="1">
  <advance width="1457"/>
  <unicode hex="2260"/>
  <outline>
    <contour>
      <point x="568" y="-177" type="line"/>
      <point x="712" y="265" type="line"/>
      <point x="1305" y="265" type="line"/>
      <point x="1305" y="537" type="line"/>
      <point x="802" y="537" type="line"/>
      <point x="855" y="697" type="line"/>
      <point x="1305" y="697" type="line"/>
      <point x="1305" y="969" type="line"/>
      <point x="945" y="969" type="line"/>
      <point x="1074" y="1358" type="line"/>
      <point x="887" y="1417" type="line"/>
      <point x="742" y="969" type="line"/>
      <point x="151" y="969" type="line"/>
      <point x="151" y="697" type="line"/>
      <point x="653" y="697" type="line"/>
      <point x="601" y="537" type="line"/>
      <point x="151" y="537" type="line"/>
      <point x="151" y="265" type="line"/>
      <point x="512" y="265" type="line"/>
      <point x="388" y="-120" type="line"/>
    </contour>
  </outline>
</glyph>
<glyph name="uniFB02" format="1">
  <advance width="1600"/>
  <unicode hex="FB02"/>
  <outline>
    <contour>
      <point x="207" y="0" type="line"/>
      <point x="619" y="0" type="line"/>
      <point x="619" y="981" type="line"/>
      <point x="874" y="981" type="line"/>
      <point x="874" y="1162" type="line"/>
      <point x="621" y="1162" type="line"/>
      <point x="621" y="1344"/>
      <point x="712" y="1374"/>
      <point x="808" y="1374" type="curve" smooth="yes"/>
      <point x="878" y="1374"/>
      <point x="960" y="1361"/>
      <point x="1047" y="1359" type="curve"/>
      <point x="1047" y="0" type="line"/>
      <point x="1460" y="0" type="line"/>
      <point x="1460" y="1647" type="line"/>
      <point x="1249" y="1655"/>
      <point x="1033" y="1679"/>
      <point x="840" y="1679" type="curve" smooth="yes"/>
      <point x="486" y="1679"/>
      <point x="207" y="1599"/>
      <point x="207" y="1162" type="curve"/>
      <point x="19" y="1162" type="line"/>
      <point x="19" y="981" type="line"/>
      <point x="207" y="981" type="line"/>
    </contour>
  </outline>
</glyph>
<glyph name=".notdef" format="1">
  <advance width="739"/>
  <outline>
    <contour>
      <point x="117" y="68" type="line"/>
      <point x="117" y="1297" type="line"/>
      <point x="525" y="1297" type="line"/>
      <point x="525" y="68" type="line"/>
    </contour>
    <contour>
      <point x="49" y="0" type="line"/>
      <point x="593" y="0" type="line"/>
      <point x="593" y="1365" type="line"/>
      <point x="49" y="1365" type="line"/>
    </contour>
  </outline>
</glyph>
<glyph name="ff" format="1">
  <advance width="1750"/>
  <outline>
    <contour>
      <point x="207" y="0" type="line"/>
      <point x="619" y="0" type="line"/>
      <point x="619" y="981" type="line"/>
      <point x="1053" y="981" type="line"/>
      <point x="1053" y="0" type="line"/>
      <point x="1465" y="0" type="line"/>
      <point x="1465" y="981" type="line"/>
      <point x="1720" y="981" type="line"/>
      <point x="1720" y="1162" type="line"/>
      <point x="1466" y="1162" type="line"/>
      <point x="1466" y="1351"/>
      <point x="1549" y="1359"/>
      <point x="1592" y="1359" type="curve" smooth="yes"/>
      <point x="1646" y="1359"/>
      <point x="1693" y="1362"/>
      <point x="1739" y="1353" type="curve"/>
      <point x="1715" y="1659" type="line"/>
      <point x="1633" y="1665"/>
      <point x="1565" y="1663"/>
      <point x="1491" y="1663" type="curve" smooth="yes"/>
      <point x="1224" y="1663"/>
      <point x="1053" y="1515"/>
      <point x="1053" y="1162" type="curve"/>
      <point x="621" y="1162" type="line"/>
      <point x="621" y="1351"/>
      <point x="704" y="1359"/>
      <point x="747" y="1359" type="curve" smooth="yes"/>
      <point x="800" y="1359"/>
      <point x="847" y="1362"/>
      <point x="893" y="1353" type="curve"/>
      <point x="869" y="1659" type="line"/>
      <point x="787" y="1665"/>
      <point x="719" y="1663"/>
      <point x="645" y="1663" type="curve" smooth="yes"/>
      <point x="378" y="1663"/>
      <point x="207" y="1515"/>
      <point x="207" y="1162" type="curve"/>
      <point x="19" y="1162" type="line"/>
      <point x="19" y="981" type="line"/>
      <point x="207" y="981" type="line"/>
    </contour>
  </outline>
</glyph>
<glyph name="fj" format="1">
  <advance width="1590"/>
  <outline>
    <contour>
      <point x="977" y="-338" type="line"/>
      <point x="1222" y="-283"/>
      <point x="1471" y="-93"/>
      <point x="1471" y="222" type="curve" smooth="yes"/>
      <point x="1471" y="1162" type="line"/>
      <point x="621" y="1162" type="line"/>
      <point x="621" y="1324"/>
      <point x="680" y="1354"/>
      <point x="747" y="1354" type="curve" smooth="yes"/>
      <point x="807" y="1354"/>
      <point x="853" y="1351"/>
      <point x="887" y="1347" type="curve"/>
      <point x="866" y="1654" type="line"/>
      <point x="800" y="1656"/>
      <point x="728" y="1661"/>
      <point x="649" y="1661" type="curve" smooth="yes"/>
      <point x="356" y="1661"/>
      <point x="207" y="1488"/>
      <point x="207" y="1162" type="curve"/>
      <point x="19" y="1162" type="line"/>
      <point x="19" y="981" type="line"/>
      <point x="207" y="981" type="line"/>
      <point x="207" y="0" type="line"/>
      <point x="619" y="0" type="line"/>
      <point x="619" y="981" type="line"/>
      <point x="1058" y="981" type="line"/>
      <point x="1058" y="241" type="line" smooth="yes"/>
      <point x="1058" y="60"/>
      <point x="957" y="4"/>
      <point x="841" y="-57" type="curve"/>
    </contour>
    <contour>
      <point x="1263" y="1335" type="curve" smooth="yes"/>
      <point x="1392" y="1335"/>
      <point x="1483" y="1432"/>
      <point x="1483" y="1559" type="curve" smooth="yes"/>
      <point x="1483" y="1686"/>
      <point x="1390" y="1784"/>
      <point x="1263" y="1784" type="curve" smooth="yes"/>
      <point x="1136" y="1784"/>
      <point x="1044" y="1690"/>
      <point x="1044" y="1559" type="curve" smooth="yes"/>
      <point x="1044" y="1438"/>
      <point x="1132" y="1335"/>
    </contour>
  </outline>
</glyph>
<glyph name="lc_ascender_stem" format="1">
  <advance width="1394"/>
  <outline>
    <contour>
      <point x="563" y="0" type="line"/>
      <point x="563" y="0"/>
      <point x="563" y="1647"/>
      <point x="563" y="1647" type="curve"/>
      <point x="151" y="1578" type="line"/>
      <point x="151" y="0" type="line"/>
    </contour>
  </outline>
</glyph>
<glyph name="lc_ascender_stem_2" format="1">
  <advance width="1404"/>
  <outline>
    <contour>
      <point x="430" y="0" type="line"/>
      <point x="558" y="301" type="line"/>
      <point x="558" y="1647" type="line"/>
      <point x="144" y="1578" type="line"/>
      <point x="144" y="0" type="line"/>
    </contour>
  </outline>
</glyph>
<glyph name="lc_descender_stem" format="1">
  <advance width="1370"/>
  <outline>
    <contour>
      <point x="604" y="-456" type="line"/>
      <point x="604" y="872" type="line"/>
      <point x="476" y="1162" type="line"/>
      <point x="190" y="1162" type="line"/>
      <point x="190" y="-525" type="line"/>
    </contour>
  </outline>
</glyph>
<glyph name="lc_main_stem" format="1">
  <advance width="1350"/>
  <outline>
    <contour>
      <point x="556" y="0" type="line"/>
      <point x="556" y="879" type="line"/>
      <point x="556" y="879"/>
      <point x="458" y="1162"/>
      <point x="458" y="1162" type="curve"/>
      <point x="144" y="1162" type="line"/>
      <point x="144" y="0" type="line"/>
    </contour>
  </outline>
</glyph>
